<svg width="1216" height="1216" viewBox="0 0 1216 1216" fill="none" xmlns="http://www.w3.org/2000/svg">
<rect width="1216" height="1216" fill="#6328C3"/>
<path d="M101.72 1073V1010.96H118V1037.54H118.176L141.936 1010.96H160.944L130.848 1043.61V1037.18L162.616 1073H142.992L118.176 1045.02H118V1073H101.72ZM185.182 1073.97C177.086 1073.97 170.779 1071.89 166.262 1067.72C161.803 1063.55 159.574 1057.83 159.574 1050.56C159.574 1046.04 160.512 1042.02 162.39 1038.5C164.267 1034.98 166.907 1032.26 170.31 1030.32C173.712 1028.33 177.702 1027.33 182.278 1027.33C186.795 1027.33 190.55 1028.33 193.542 1030.32C196.592 1032.26 198.88 1034.95 200.406 1038.42C201.931 1041.82 202.694 1045.78 202.694 1050.3V1053.64H172.686V1046.25H191.166L189.67 1047.48C189.67 1044.14 189.024 1041.67 187.734 1040.09C186.502 1038.45 184.742 1037.62 182.454 1037.62C179.814 1037.62 177.79 1038.62 176.382 1040.62C175.032 1042.55 174.358 1045.49 174.358 1049.42V1051C174.358 1054.93 175.326 1057.81 177.262 1059.62C179.198 1061.44 181.984 1062.35 185.622 1062.35C187.968 1062.35 190.168 1062.09 192.222 1061.56C194.334 1061.03 196.328 1060.18 198.206 1059.01L202.254 1069.22C200.024 1070.74 197.443 1071.91 194.51 1072.74C191.576 1073.56 188.467 1073.97 185.182 1073.97ZM210.153 1073V1008.23H225.817V1073H210.153ZM253.104 1073.97C249.232 1073.97 245.829 1073.06 242.896 1071.24C239.963 1069.36 237.645 1066.66 235.944 1063.14C234.301 1059.62 233.48 1055.46 233.48 1050.65C233.48 1045.78 234.301 1041.61 235.944 1038.15C237.645 1034.63 239.963 1031.96 242.896 1030.14C245.829 1028.27 249.232 1027.33 253.104 1027.33C256.565 1027.33 259.675 1028.15 262.432 1029.79C265.248 1031.43 267.096 1033.58 267.976 1036.22H267.096L268.064 1028.3H283.112C282.936 1030.29 282.76 1032.31 282.584 1034.37C282.467 1036.42 282.408 1038.45 282.408 1040.44V1073H266.92L266.744 1065.43H267.8C266.92 1068.01 265.072 1070.1 262.256 1071.68C259.499 1073.21 256.448 1073.97 253.104 1073.97ZM258.12 1062.35C260.76 1062.35 262.901 1061.44 264.544 1059.62C266.187 1057.75 267.008 1054.75 267.008 1050.65C267.008 1046.54 266.187 1043.58 264.544 1041.76C262.901 1039.88 260.76 1038.94 258.12 1038.94C255.48 1038.94 253.339 1039.88 251.696 1041.76C250.053 1043.58 249.232 1046.54 249.232 1050.65C249.232 1054.75 250.024 1057.75 251.608 1059.62C253.251 1061.44 255.421 1062.35 258.12 1062.35ZM309.297 1073.97C305.132 1073.97 301.348 1073.56 297.945 1072.74C294.601 1071.86 291.756 1070.68 289.409 1069.22L293.193 1059.01C295.481 1060.3 298.033 1061.35 300.849 1062.18C303.724 1063 306.569 1063.41 309.385 1063.41C311.614 1063.41 313.228 1063.09 314.225 1062.44C315.281 1061.74 315.809 1060.83 315.809 1059.71C315.809 1058.83 315.486 1058.13 314.841 1057.6C314.196 1057.07 313.228 1056.69 311.937 1056.46L302.433 1054.78C298.678 1054.08 295.745 1052.7 293.633 1050.65C291.58 1048.54 290.553 1045.81 290.553 1042.46C290.553 1039.41 291.374 1036.77 293.017 1034.54C294.66 1032.26 297.006 1030.5 300.057 1029.26C303.108 1027.97 306.716 1027.33 310.881 1027.33C314.284 1027.33 317.51 1027.71 320.561 1028.47C323.67 1029.23 326.369 1030.44 328.657 1032.08L324.609 1042.02C322.79 1040.79 320.649 1039.79 318.185 1039.03C315.78 1038.21 313.521 1037.8 311.409 1037.8C308.886 1037.8 307.097 1038.18 306.041 1038.94C304.985 1039.65 304.457 1040.53 304.457 1041.58C304.457 1042.41 304.75 1043.11 305.337 1043.7C305.924 1044.22 306.862 1044.61 308.153 1044.84L317.657 1046.51C321.529 1047.16 324.492 1048.51 326.545 1050.56C328.657 1052.55 329.713 1055.28 329.713 1058.74C329.713 1061.97 328.833 1064.73 327.073 1067.02C325.372 1069.25 322.996 1070.98 319.945 1072.21C316.894 1073.38 313.345 1073.97 309.297 1073.97ZM386.29 1073.97C381.303 1073.97 376.551 1073.38 372.034 1072.21C367.575 1070.98 363.821 1069.33 360.77 1067.28L365.346 1054.7C367.282 1055.93 369.394 1056.98 371.682 1057.86C373.97 1058.74 376.346 1059.45 378.81 1059.98C381.333 1060.45 383.885 1060.68 386.466 1060.68C390.338 1060.68 393.007 1060.18 394.474 1059.18C395.999 1058.19 396.762 1056.9 396.762 1055.31C396.762 1053.9 396.263 1052.82 395.266 1052.06C394.269 1051.23 392.391 1050.53 389.634 1049.94L378.898 1047.74C373.207 1046.57 368.954 1044.55 366.138 1041.67C363.322 1038.74 361.914 1034.93 361.914 1030.23C361.914 1026.13 362.999 1022.58 365.17 1019.58C367.399 1016.53 370.509 1014.19 374.498 1012.54C378.487 1010.84 383.151 1009.99 388.49 1009.99C392.89 1009.99 397.026 1010.61 400.898 1011.84C404.77 1013.01 407.938 1014.66 410.402 1016.77L405.826 1028.56C403.479 1026.86 400.839 1025.57 397.906 1024.69C394.973 1023.75 391.717 1023.28 388.138 1023.28C384.735 1023.28 382.154 1023.81 380.394 1024.86C378.693 1025.86 377.842 1027.3 377.842 1029.18C377.842 1030.47 378.341 1031.58 379.338 1032.52C380.394 1033.4 382.301 1034.13 385.058 1034.72L395.618 1036.83C401.309 1037.95 405.562 1039.94 408.378 1042.82C411.253 1045.69 412.69 1049.45 412.69 1054.08C412.69 1058.07 411.575 1061.56 409.346 1064.55C407.175 1067.54 404.125 1069.86 400.194 1071.5C396.263 1073.15 391.629 1073.97 386.29 1073.97ZM421.129 1073V1008.23H436.793V1046.34H436.969L451.929 1028.3H470.409L450.169 1052.23V1046.86L471.201 1073H452.281L436.969 1054.26H436.793V1073H421.129ZM473.551 1073V1040.53C473.551 1038.47 473.492 1036.42 473.375 1034.37C473.258 1032.31 473.082 1030.29 472.847 1028.3H487.983L489.655 1042.02H487.279C487.866 1038.68 488.804 1035.92 490.095 1033.75C491.386 1031.58 492.999 1029.97 494.935 1028.91C496.871 1027.86 499.159 1027.33 501.799 1027.33C503.031 1027.33 503.94 1027.39 504.527 1027.5C505.172 1027.56 505.847 1027.74 506.551 1028.03V1041.76C505.084 1041.11 503.911 1040.7 503.031 1040.53C502.151 1040.35 501.007 1040.26 499.599 1040.26C497.194 1040.26 495.228 1040.7 493.703 1041.58C492.178 1042.41 491.063 1043.7 490.359 1045.46C489.714 1047.22 489.391 1049.47 489.391 1052.23V1073H473.551ZM511.278 1073V1028.3H526.942V1073H511.278ZM510.926 1021.96V1007.88H527.382V1021.96H510.926ZM536.629 1092.01V1040.44C536.629 1038.45 536.57 1036.42 536.453 1034.37C536.336 1032.31 536.16 1030.29 535.925 1028.3H551.061L552.029 1036.22H551.149C551.97 1033.58 553.789 1031.43 556.605 1029.79C559.421 1028.15 562.56 1027.33 566.021 1027.33C569.893 1027.33 573.296 1028.27 576.229 1030.14C579.162 1031.96 581.45 1034.63 583.093 1038.15C584.794 1041.61 585.645 1045.78 585.645 1050.65C585.645 1055.46 584.794 1059.62 583.093 1063.14C581.45 1066.66 579.162 1069.36 576.229 1071.24C573.296 1073.06 569.893 1073.97 566.021 1073.97C562.618 1073.97 559.538 1073.21 556.781 1071.68C554.024 1070.1 552.205 1068.01 551.325 1065.43H552.293V1092.01H536.629ZM561.005 1062.35C563.704 1062.35 565.845 1061.44 567.429 1059.62C569.072 1057.75 569.893 1054.75 569.893 1050.65C569.893 1046.54 569.072 1043.58 567.429 1041.76C565.845 1039.88 563.704 1038.94 561.005 1038.94C558.365 1038.94 556.224 1039.88 554.581 1041.76C552.938 1043.58 552.117 1046.54 552.117 1050.65C552.117 1054.75 552.938 1057.75 554.581 1059.62C556.224 1061.44 558.365 1062.35 561.005 1062.35ZM610.422 1073.97C606.257 1073.97 602.473 1073.56 599.07 1072.74C595.726 1071.86 592.881 1070.68 590.534 1069.22L594.318 1059.01C596.606 1060.3 599.158 1061.35 601.974 1062.18C604.849 1063 607.694 1063.41 610.51 1063.41C612.739 1063.41 614.353 1063.09 615.35 1062.44C616.406 1061.74 616.934 1060.83 616.934 1059.71C616.934 1058.83 616.611 1058.13 615.966 1057.6C615.321 1057.07 614.353 1056.69 613.062 1056.46L603.558 1054.78C599.803 1054.08 596.87 1052.7 594.758 1050.65C592.705 1048.54 591.678 1045.81 591.678 1042.46C591.678 1039.41 592.499 1036.77 594.142 1034.54C595.785 1032.26 598.131 1030.5 601.182 1029.26C604.233 1027.97 607.841 1027.33 612.006 1027.33C615.409 1027.33 618.635 1027.71 621.686 1028.47C624.795 1029.23 627.494 1030.44 629.782 1032.08L625.734 1042.02C623.915 1040.79 621.774 1039.79 619.31 1039.03C616.905 1038.21 614.646 1037.8 612.534 1037.8C610.011 1037.8 608.222 1038.18 607.166 1038.94C606.11 1039.65 605.582 1040.53 605.582 1041.58C605.582 1042.41 605.875 1043.11 606.462 1043.7C607.049 1044.22 607.987 1044.61 609.278 1044.84L618.782 1046.51C622.654 1047.16 625.617 1048.51 627.67 1050.56C629.782 1052.55 630.838 1055.28 630.838 1058.74C630.838 1061.97 629.958 1064.73 628.198 1067.02C626.497 1069.25 624.121 1070.98 621.07 1072.21C618.019 1073.38 614.47 1073.97 610.422 1073.97ZM637.778 1073V1028.3H653.442V1073H637.778ZM637.426 1021.96V1007.88H653.882V1021.96H637.426ZM689.447 1073V1010.96H733.007V1023.37H705.727V1035.95H730.983V1048.36H705.727V1073H689.447ZM755.753 1073.97C751.881 1073.97 748.478 1073.06 745.545 1071.24C742.611 1069.36 740.294 1066.66 738.593 1063.14C736.95 1059.62 736.129 1055.46 736.129 1050.65C736.129 1045.78 736.95 1041.61 738.593 1038.15C740.294 1034.63 742.611 1031.96 745.545 1030.14C748.478 1028.27 751.881 1027.33 755.753 1027.33C759.214 1027.33 762.323 1028.15 765.081 1029.79C767.897 1031.43 769.745 1033.58 770.625 1036.22H769.745L770.713 1028.3H785.761C785.585 1030.29 785.409 1032.31 785.233 1034.37C785.115 1036.42 785.056 1038.45 785.056 1040.44V1073H769.569L769.393 1065.43H770.449C769.569 1068.01 767.721 1070.1 764.905 1071.68C762.147 1073.21 759.097 1073.97 755.753 1073.97ZM760.769 1062.35C763.409 1062.35 765.55 1061.44 767.193 1059.62C768.835 1057.75 769.657 1054.75 769.657 1050.65C769.657 1046.54 768.835 1043.58 767.193 1041.76C765.55 1039.88 763.409 1038.94 760.769 1038.94C758.129 1038.94 755.987 1039.88 754.345 1041.76C752.702 1043.58 751.881 1046.54 751.881 1050.65C751.881 1054.75 752.673 1057.75 754.257 1059.62C755.899 1061.44 758.07 1062.35 760.769 1062.35ZM794.785 1073V1040.53C794.785 1038.47 794.727 1036.42 794.609 1034.37C794.492 1032.31 794.316 1030.29 794.081 1028.3H809.217L810.889 1042.02H808.513C809.1 1038.68 810.039 1035.92 811.329 1033.75C812.62 1031.58 814.233 1029.97 816.169 1028.91C818.105 1027.86 820.393 1027.33 823.033 1027.33C824.265 1027.33 825.175 1027.39 825.761 1027.5C826.407 1027.56 827.081 1027.74 827.785 1028.03V1041.76C826.319 1041.11 825.145 1040.7 824.265 1040.53C823.385 1040.35 822.241 1040.26 820.833 1040.26C818.428 1040.26 816.463 1040.7 814.937 1041.58C813.412 1042.41 812.297 1043.7 811.593 1045.46C810.948 1047.22 810.625 1049.47 810.625 1052.23V1073H794.785ZM832.512 1073V1040.44C832.512 1038.45 832.453 1036.42 832.336 1034.37C832.219 1032.31 832.043 1030.29 831.808 1028.3H846.944L847.824 1036.04H846.856C848.147 1033.34 850.053 1031.23 852.576 1029.7C855.099 1028.12 858.061 1027.33 861.464 1027.33C864.749 1027.33 867.536 1028.12 869.824 1029.7C872.171 1031.23 873.872 1033.66 874.928 1037.01H873.432C874.899 1033.96 877.011 1031.58 879.768 1029.88C882.584 1028.18 885.723 1027.33 889.184 1027.33C894.288 1027.33 898.101 1028.88 900.624 1031.99C903.147 1035.04 904.408 1039.82 904.408 1046.34V1073H888.656V1046.86C888.656 1044.11 888.245 1042.17 887.424 1041.06C886.603 1039.88 885.283 1039.3 883.464 1039.3C881.176 1039.3 879.387 1040.12 878.096 1041.76C876.864 1043.4 876.248 1045.66 876.248 1048.54V1073H860.584V1046.86C860.584 1044.11 860.144 1042.17 859.264 1041.06C858.443 1039.88 857.152 1039.3 855.392 1039.3C853.104 1039.3 851.315 1040.12 850.024 1041.76C848.792 1043.4 848.176 1045.66 848.176 1048.54V1073H832.512ZM931.409 1073.97C927.537 1073.97 924.134 1073.06 921.201 1071.24C918.267 1069.36 915.95 1066.66 914.249 1063.14C912.606 1059.62 911.785 1055.46 911.785 1050.65C911.785 1045.78 912.606 1041.61 914.249 1038.15C915.95 1034.63 918.267 1031.96 921.201 1030.14C924.134 1028.27 927.537 1027.33 931.409 1027.33C934.87 1027.33 937.979 1028.15 940.737 1029.79C943.553 1031.43 945.401 1033.58 946.281 1036.22H945.401L946.369 1028.3H961.417C961.241 1030.29 961.065 1032.31 960.889 1034.37C960.771 1036.42 960.713 1038.45 960.713 1040.44V1073H945.225L945.049 1065.43H946.105C945.225 1068.01 943.377 1070.1 940.561 1071.68C937.803 1073.21 934.753 1073.97 931.409 1073.97ZM936.425 1062.35C939.065 1062.35 941.206 1061.44 942.849 1059.62C944.491 1057.75 945.313 1054.75 945.313 1050.65C945.313 1046.54 944.491 1043.58 942.849 1041.76C941.206 1039.88 939.065 1038.94 936.425 1038.94C933.785 1038.94 931.643 1039.88 930.001 1041.76C928.358 1043.58 927.537 1046.54 927.537 1050.65C927.537 1054.75 928.329 1057.75 929.913 1059.62C931.555 1061.44 933.726 1062.35 936.425 1062.35ZM987.602 1073.97C983.436 1073.97 979.652 1073.56 976.25 1072.74C972.906 1071.86 970.06 1070.68 967.714 1069.22L971.498 1059.01C973.786 1060.3 976.338 1061.35 979.154 1062.18C982.028 1063 984.874 1063.41 987.69 1063.41C989.919 1063.41 991.532 1063.09 992.53 1062.44C993.586 1061.74 994.114 1060.83 994.114 1059.71C994.114 1058.83 993.791 1058.13 993.146 1057.6C992.5 1057.07 991.532 1056.69 990.242 1056.46L980.738 1054.78C976.983 1054.08 974.05 1052.7 971.938 1050.65C969.884 1048.54 968.858 1045.81 968.858 1042.46C968.858 1039.41 969.679 1036.77 971.322 1034.54C972.964 1032.26 975.311 1030.5 978.362 1029.26C981.412 1027.97 985.02 1027.33 989.186 1027.33C992.588 1027.33 995.815 1027.71 998.866 1028.47C1001.97 1029.23 1004.67 1030.44 1006.96 1032.08L1002.91 1042.02C1001.09 1040.79 998.954 1039.79 996.49 1039.03C994.084 1038.21 991.826 1037.8 989.714 1037.8C987.191 1037.8 985.402 1038.18 984.346 1038.94C983.29 1039.65 982.762 1040.53 982.762 1041.58C982.762 1042.41 983.055 1043.11 983.642 1043.7C984.228 1044.22 985.167 1044.61 986.458 1044.84L995.962 1046.51C999.834 1047.16 1002.8 1048.51 1004.85 1050.56C1006.96 1052.55 1008.02 1055.28 1008.02 1058.74C1008.02 1061.97 1007.14 1064.73 1005.38 1067.02C1003.68 1069.25 1001.3 1070.98 998.25 1072.21C995.199 1073.38 991.65 1073.97 987.602 1073.97ZM1014.96 1073V1028.3H1030.62V1073H1014.96ZM1014.61 1021.96V1007.88H1031.06V1021.96H1014.61Z" fill="white"/>
<path d="M1096.18 96H691.273C666.005 96 641.772 106.049 623.905 123.938C606.038 141.826 596 166.087 596 191.385V692.154C596 698.478 598.509 704.544 602.976 709.016C607.443 713.488 613.501 716 619.818 716H1048.55C1054.86 716 1060.92 713.488 1065.39 709.016C1069.85 704.544 1072.36 698.478 1072.36 692.154C1072.36 685.829 1069.85 679.764 1065.39 675.292C1060.92 670.82 1054.86 668.308 1048.55 668.308H643.636C643.636 655.659 648.655 643.528 657.589 634.584C666.522 625.64 678.639 620.615 691.273 620.615H1096.18C1102.5 620.615 1108.56 618.103 1113.02 613.631C1117.49 609.159 1120 603.094 1120 596.769V119.846C1120 113.522 1117.49 107.456 1113.02 102.984C1108.56 98.5124 1102.5 96 1096.18 96ZM834.182 143.692H977.091V358.308L919.897 315.385C915.775 312.289 910.76 310.615 905.607 310.615C900.453 310.615 895.439 312.289 891.316 315.385L834.182 358.308V143.692ZM1072.36 572.923H691.273C674.544 572.897 658.108 577.31 643.636 585.711V191.385C643.636 178.736 648.655 166.605 657.589 157.661C666.522 148.717 678.639 143.692 691.273 143.692H786.545V406C786.545 410.429 787.777 414.77 790.103 418.537C792.428 422.304 795.755 425.348 799.712 427.329C803.668 429.309 808.097 430.148 812.503 429.75C816.908 429.352 821.116 427.734 824.655 425.077L905.636 364.269L986.648 425.077C990.763 428.167 995.766 429.84 1000.91 429.846C1007.23 429.846 1013.28 427.334 1017.75 422.862C1022.22 418.39 1024.73 412.324 1024.73 406V143.692H1072.36V572.923Z" fill="white" fill-opacity="0.2"/>
</svg>
