<svg width="1216" height="1216" viewBox="0 0 1216 1216" fill="none" xmlns="http://www.w3.org/2000/svg">
<rect width="1216" height="1216" fill="#6328C3"/>
<path d="M101.72 1073V1010.96H118V1037.54H118.176L141.936 1010.96H160.944L130.848 1043.61V1037.18L162.616 1073H142.992L118.176 1045.02H118V1073H101.72ZM185.182 1073.97C177.086 1073.97 170.779 1071.89 166.262 1067.72C161.803 1063.55 159.574 1057.83 159.574 1050.56C159.574 1046.04 160.512 1042.02 162.39 1038.5C164.267 1034.98 166.907 1032.26 170.31 1030.32C173.712 1028.33 177.702 1027.33 182.278 1027.33C186.795 1027.33 190.55 1028.33 193.542 1030.32C196.592 1032.26 198.88 1034.95 200.406 1038.42C201.931 1041.82 202.694 1045.78 202.694 1050.3V1053.64H172.686V1046.25H191.166L189.67 1047.48C189.67 1044.14 189.024 1041.67 187.734 1040.09C186.502 1038.45 184.742 1037.62 182.454 1037.62C179.814 1037.62 177.79 1038.62 176.382 1040.62C175.032 1042.55 174.358 1045.49 174.358 1049.42V1051C174.358 1054.93 175.326 1057.81 177.262 1059.62C179.198 1061.44 181.984 1062.35 185.622 1062.35C187.968 1062.35 190.168 1062.09 192.222 1061.56C194.334 1061.03 196.328 1060.18 198.206 1059.01L202.254 1069.22C200.024 1070.74 197.443 1071.91 194.51 1072.74C191.576 1073.56 188.467 1073.97 185.182 1073.97ZM210.153 1073V1008.23H225.817V1073H210.153ZM253.104 1073.97C249.232 1073.97 245.829 1073.06 242.896 1071.24C239.963 1069.36 237.645 1066.66 235.944 1063.14C234.301 1059.62 233.48 1055.46 233.48 1050.65C233.48 1045.78 234.301 1041.61 235.944 1038.15C237.645 1034.63 239.963 1031.96 242.896 1030.14C245.829 1028.27 249.232 1027.33 253.104 1027.33C256.565 1027.33 259.675 1028.15 262.432 1029.79C265.248 1031.43 267.096 1033.58 267.976 1036.22H267.096L268.064 1028.3H283.112C282.936 1030.29 282.76 1032.31 282.584 1034.37C282.467 1036.42 282.408 1038.45 282.408 1040.44V1073H266.92L266.744 1065.43H267.8C266.92 1068.01 265.072 1070.1 262.256 1071.68C259.499 1073.21 256.448 1073.97 253.104 1073.97ZM258.12 1062.35C260.76 1062.35 262.901 1061.44 264.544 1059.62C266.187 1057.75 267.008 1054.75 267.008 1050.65C267.008 1046.54 266.187 1043.58 264.544 1041.76C262.901 1039.88 260.76 1038.94 258.12 1038.94C255.48 1038.94 253.339 1039.88 251.696 1041.76C250.053 1043.58 249.232 1046.54 249.232 1050.65C249.232 1054.75 250.024 1057.75 251.608 1059.62C253.251 1061.44 255.421 1062.35 258.12 1062.35ZM309.297 1073.97C305.132 1073.97 301.348 1073.56 297.945 1072.74C294.601 1071.86 291.756 1070.68 289.409 1069.22L293.193 1059.01C295.481 1060.3 298.033 1061.35 300.849 1062.18C303.724 1063 306.569 1063.41 309.385 1063.41C311.614 1063.41 313.228 1063.09 314.225 1062.44C315.281 1061.74 315.809 1060.83 315.809 1059.71C315.809 1058.83 315.486 1058.13 314.841 1057.6C314.196 1057.07 313.228 1056.69 311.937 1056.46L302.433 1054.78C298.678 1054.08 295.745 1052.7 293.633 1050.65C291.58 1048.54 290.553 1045.81 290.553 1042.46C290.553 1039.41 291.374 1036.77 293.017 1034.54C294.66 1032.26 297.006 1030.5 300.057 1029.26C303.108 1027.97 306.716 1027.33 310.881 1027.33C314.284 1027.33 317.51 1027.71 320.561 1028.47C323.67 1029.23 326.369 1030.44 328.657 1032.08L324.609 1042.02C322.79 1040.79 320.649 1039.79 318.185 1039.03C315.78 1038.21 313.521 1037.8 311.409 1037.8C308.886 1037.8 307.097 1038.18 306.041 1038.94C304.985 1039.65 304.457 1040.53 304.457 1041.58C304.457 1042.41 304.75 1043.11 305.337 1043.7C305.924 1044.22 306.862 1044.61 308.153 1044.84L317.657 1046.51C321.529 1047.16 324.492 1048.51 326.545 1050.56C328.657 1052.55 329.713 1055.28 329.713 1058.74C329.713 1061.97 328.833 1064.73 327.073 1067.02C325.372 1069.25 322.996 1070.98 319.945 1072.21C316.894 1073.38 313.345 1073.97 309.297 1073.97ZM362.97 1073V1010.96H393.418C400.575 1010.96 405.973 1012.72 409.61 1016.24C413.247 1019.7 415.066 1024.42 415.066 1030.41C415.066 1036.33 413.247 1041.06 409.61 1044.58C405.973 1048.1 400.575 1049.86 393.418 1049.86H379.25V1073H362.97ZM379.25 1037.36H391.306C394.063 1037.36 396.117 1036.77 397.466 1035.6C398.815 1034.37 399.49 1032.64 399.49 1030.41C399.49 1028.18 398.815 1026.45 397.466 1025.22C396.117 1023.98 394.063 1023.37 391.306 1023.37H379.25V1037.36ZM421.387 1073V1040.53C421.387 1038.47 421.328 1036.42 421.211 1034.37C421.094 1032.31 420.918 1030.29 420.683 1028.3H435.819L437.491 1042.02H435.115C435.702 1038.68 436.64 1035.92 437.931 1033.75C439.222 1031.58 440.835 1029.97 442.771 1028.91C444.707 1027.86 446.995 1027.33 449.635 1027.33C450.867 1027.33 451.776 1027.39 452.363 1027.5C453.008 1027.56 453.683 1027.74 454.387 1028.03V1041.76C452.92 1041.11 451.747 1040.7 450.867 1040.53C449.987 1040.35 448.843 1040.26 447.435 1040.26C445.03 1040.26 443.064 1040.7 441.539 1041.58C440.014 1042.41 438.899 1043.7 438.195 1045.46C437.55 1047.22 437.227 1049.47 437.227 1052.23V1073H421.387ZM459.113 1073V1028.3H474.777V1073H459.113ZM458.761 1021.96V1007.88H475.217V1021.96H458.761ZM497.489 1073L478.041 1028.3H494.497L506.025 1058.04H502.857L514.913 1028.3H530.313L510.689 1073H497.489ZM550.362 1073.97C546.49 1073.97 543.087 1073.06 540.154 1071.24C537.221 1069.36 534.903 1066.66 533.202 1063.14C531.559 1059.62 530.738 1055.46 530.738 1050.65C530.738 1045.78 531.559 1041.61 533.202 1038.15C534.903 1034.63 537.221 1031.96 540.154 1030.14C543.087 1028.27 546.49 1027.33 550.362 1027.33C553.823 1027.33 556.933 1028.15 559.69 1029.79C562.506 1031.43 564.354 1033.58 565.234 1036.22H564.354L565.322 1028.3H580.37C580.194 1030.29 580.018 1032.31 579.842 1034.37C579.725 1036.42 579.666 1038.45 579.666 1040.44V1073H564.178L564.002 1065.43H565.058C564.178 1068.01 562.33 1070.1 559.514 1071.68C556.757 1073.21 553.706 1073.97 550.362 1073.97ZM555.378 1062.35C558.018 1062.35 560.159 1061.44 561.802 1059.62C563.445 1057.75 564.266 1054.75 564.266 1050.65C564.266 1046.54 563.445 1043.58 561.802 1041.76C560.159 1039.88 558.018 1038.94 555.378 1038.94C552.738 1038.94 550.597 1039.88 548.954 1041.76C547.311 1043.58 546.49 1046.54 546.49 1050.65C546.49 1054.75 547.282 1057.75 548.866 1059.62C550.509 1061.44 552.679 1062.35 555.378 1062.35ZM612.275 1073.97C605.939 1073.97 601.157 1072.47 597.931 1069.48C594.763 1066.43 593.179 1061.82 593.179 1055.66V1039.82H584.819V1028.3H593.179V1017.74L608.843 1014.04V1028.3H619.755V1039.82H608.843V1055.05C608.843 1057.63 609.429 1059.36 610.603 1060.24C611.776 1061.06 613.184 1061.47 614.827 1061.47C615.824 1061.47 616.675 1061.41 617.379 1061.3C618.141 1061.12 618.933 1060.89 619.755 1060.59V1072.65C618.464 1073.18 617.173 1073.53 615.883 1073.7C614.651 1073.88 613.448 1073.97 612.275 1073.97ZM648.987 1073.97C640.891 1073.97 634.584 1071.89 630.067 1067.72C625.608 1063.55 623.379 1057.83 623.379 1050.56C623.379 1046.04 624.317 1042.02 626.195 1038.5C628.072 1034.98 630.712 1032.26 634.115 1030.32C637.517 1028.33 641.507 1027.33 646.083 1027.33C650.6 1027.33 654.355 1028.33 657.347 1030.32C660.397 1032.26 662.685 1034.95 664.211 1038.42C665.736 1041.82 666.499 1045.78 666.499 1050.3V1053.64H636.491V1046.25H654.971L653.475 1047.48C653.475 1044.14 652.829 1041.67 651.539 1040.09C650.307 1038.45 648.547 1037.62 646.259 1037.62C643.619 1037.62 641.595 1038.62 640.187 1040.62C638.837 1042.55 638.163 1045.49 638.163 1049.42V1051C638.163 1054.93 639.131 1057.81 641.067 1059.62C643.003 1061.44 645.789 1062.35 649.427 1062.35C651.773 1062.35 653.973 1062.09 656.027 1061.56C658.139 1061.03 660.133 1060.18 662.011 1059.01L666.059 1069.22C663.829 1070.74 661.248 1071.91 658.315 1072.74C655.381 1073.56 652.272 1073.97 648.987 1073.97ZM702.563 1073V1059.8H716.467V1024.42H723.859L704.059 1035.69V1020.73L721.131 1010.96H732.659V1059.8H745.595V1073H702.563ZM799.95 1073.97C794.963 1073.97 790.651 1073.03 787.014 1071.15C783.376 1069.27 780.56 1066.61 778.566 1063.14C776.571 1059.62 775.574 1055.46 775.574 1050.65C775.574 1045.78 776.571 1041.61 778.566 1038.15C780.56 1034.69 783.376 1032.02 787.014 1030.14C790.651 1028.27 794.963 1027.33 799.95 1027.33C804.878 1027.33 809.16 1028.27 812.798 1030.14C816.435 1032.02 819.251 1034.72 821.246 1038.24C823.24 1041.7 824.238 1045.84 824.238 1050.65C824.238 1055.4 823.24 1059.54 821.246 1063.06C819.251 1066.58 816.435 1069.27 812.798 1071.15C809.16 1073.03 804.878 1073.97 799.95 1073.97ZM799.95 1062.35C802.531 1062.35 804.584 1061.44 806.11 1059.62C807.635 1057.75 808.398 1054.75 808.398 1050.65C808.398 1046.54 807.635 1043.58 806.11 1041.76C804.584 1039.88 802.531 1038.94 799.95 1038.94C797.31 1038.94 795.227 1039.88 793.702 1041.76C792.176 1043.58 791.414 1046.54 791.414 1050.65C791.414 1054.75 792.176 1057.75 793.702 1059.62C795.227 1061.44 797.31 1062.35 799.95 1062.35ZM831.91 1073V1040.44C831.91 1038.45 831.852 1036.42 831.734 1034.37C831.617 1032.31 831.441 1030.29 831.206 1028.3H846.342L847.222 1036.04H846.254C847.721 1033.22 849.804 1031.08 852.502 1029.62C855.201 1028.09 858.252 1027.33 861.654 1027.33C866.876 1027.33 870.777 1028.88 873.358 1031.99C875.998 1035.04 877.318 1039.82 877.318 1046.34V1073H861.654V1047.04C861.654 1044.17 861.156 1042.17 860.158 1041.06C859.161 1039.88 857.724 1039.3 855.846 1039.3C853.382 1039.3 851.388 1040.12 849.862 1041.76C848.337 1043.34 847.574 1045.46 847.574 1048.1V1073H831.91ZM915.344 1073V1059.8H929.248V1024.42H936.64L916.84 1035.69V1020.73L933.912 1010.96H945.44V1059.8H958.376V1073H915.344Z" fill="white"/>
<path d="M982.545 486.369C982.545 492.459 980.132 498.3 975.836 502.606C971.539 506.913 965.712 509.332 959.636 509.332H776.364C770.288 509.332 764.461 506.913 760.164 502.606C755.868 498.3 753.455 492.459 753.455 486.369C753.455 480.279 755.868 474.438 760.164 470.131C764.461 465.825 770.288 463.406 776.364 463.406H959.636C965.712 463.406 971.539 465.825 975.836 470.131C980.132 474.438 982.545 480.279 982.545 486.369ZM959.636 371.553H776.364C770.288 371.553 764.461 373.973 760.164 378.279C755.868 382.585 753.455 388.426 753.455 394.516C753.455 400.607 755.868 406.447 760.164 410.754C764.461 415.06 770.288 417.479 776.364 417.479H959.636C965.712 417.479 971.539 415.06 975.836 410.754C980.132 406.447 982.545 400.607 982.545 394.516C982.545 388.426 980.132 382.585 975.836 378.279C971.539 373.973 965.712 371.553 959.636 371.553ZM1120 187.848V670.074C1120 682.254 1115.17 693.936 1106.58 702.549C1097.99 711.161 1086.33 716 1074.18 716H661.818C649.666 716 638.012 711.161 629.42 702.549C620.827 693.936 616 682.254 616 670.074V187.848C616 175.668 620.827 163.986 629.42 155.374C638.012 146.761 649.666 141.922 661.818 141.922H765.654C778.526 127.476 794.297 115.918 811.934 108.004C829.571 100.091 848.676 96 868 96C887.324 96 906.429 100.091 924.066 108.004C941.703 115.918 957.474 127.476 970.346 141.922H1074.18C1086.33 141.922 1097.99 146.761 1106.58 155.374C1115.17 163.986 1120 175.668 1120 187.848ZM776.364 233.775H959.636C959.636 209.414 949.982 186.051 932.797 168.825C915.612 151.599 892.303 141.922 868 141.922C843.697 141.922 820.388 151.599 803.203 168.825C786.018 186.051 776.364 209.414 776.364 233.775ZM1074.18 187.848H997.58C1002.79 202.596 1005.46 218.128 1005.45 233.775V256.738C1005.45 262.828 1003.04 268.669 998.745 272.975C994.448 277.281 988.621 279.701 982.545 279.701H753.455C747.379 279.701 741.552 277.281 737.255 272.975C732.959 268.669 730.545 262.828 730.545 256.738V233.775C730.544 218.128 733.208 202.596 738.42 187.848H661.818V670.074H1074.18V187.848Z" fill="white" fill-opacity="0.2"/>
</svg>
