<svg width="1216" height="1216" viewBox="0 0 1216 1216" fill="none" xmlns="http://www.w3.org/2000/svg">
<rect width="1216" height="1216" fill="#6328C3"/>
<path d="M101.72 1073V1010.96H118V1037.54H118.176L141.936 1010.96H160.944L130.848 1043.61V1037.18L162.616 1073H142.992L118.176 1045.02H118V1073H101.72ZM185.182 1073.97C177.086 1073.97 170.779 1071.89 166.262 1067.72C161.803 1063.55 159.574 1057.83 159.574 1050.56C159.574 1046.04 160.512 1042.02 162.39 1038.5C164.267 1034.98 166.907 1032.26 170.31 1030.32C173.712 1028.33 177.702 1027.33 182.278 1027.33C186.795 1027.33 190.55 1028.33 193.542 1030.32C196.592 1032.26 198.88 1034.95 200.406 1038.42C201.931 1041.82 202.694 1045.78 202.694 1050.3V1053.64H172.686V1046.25H191.166L189.67 1047.48C189.67 1044.14 189.024 1041.67 187.734 1040.09C186.502 1038.45 184.742 1037.62 182.454 1037.62C179.814 1037.62 177.79 1038.62 176.382 1040.62C175.032 1042.55 174.358 1045.49 174.358 1049.42V1051C174.358 1054.93 175.326 1057.81 177.262 1059.62C179.198 1061.44 181.984 1062.35 185.622 1062.35C187.968 1062.35 190.168 1062.09 192.222 1061.56C194.334 1061.03 196.328 1060.18 198.206 1059.01L202.254 1069.22C200.024 1070.74 197.443 1071.91 194.51 1072.74C191.576 1073.56 188.467 1073.97 185.182 1073.97ZM210.153 1073V1008.23H225.817V1073H210.153ZM253.104 1073.97C249.232 1073.97 245.829 1073.06 242.896 1071.24C239.963 1069.36 237.645 1066.66 235.944 1063.14C234.301 1059.62 233.48 1055.46 233.48 1050.65C233.48 1045.78 234.301 1041.61 235.944 1038.15C237.645 1034.63 239.963 1031.96 242.896 1030.14C245.829 1028.27 249.232 1027.33 253.104 1027.33C256.565 1027.33 259.675 1028.15 262.432 1029.79C265.248 1031.43 267.096 1033.58 267.976 1036.22H267.096L268.064 1028.3H283.112C282.936 1030.29 282.76 1032.31 282.584 1034.37C282.467 1036.42 282.408 1038.45 282.408 1040.44V1073H266.92L266.744 1065.43H267.8C266.92 1068.01 265.072 1070.1 262.256 1071.68C259.499 1073.21 256.448 1073.97 253.104 1073.97ZM258.12 1062.35C260.76 1062.35 262.901 1061.44 264.544 1059.62C266.187 1057.75 267.008 1054.75 267.008 1050.65C267.008 1046.54 266.187 1043.58 264.544 1041.76C262.901 1039.88 260.76 1038.94 258.12 1038.94C255.48 1038.94 253.339 1039.88 251.696 1041.76C250.053 1043.58 249.232 1046.54 249.232 1050.65C249.232 1054.75 250.024 1057.75 251.608 1059.62C253.251 1061.44 255.421 1062.35 258.12 1062.35ZM309.297 1073.97C305.132 1073.97 301.348 1073.56 297.945 1072.74C294.601 1071.86 291.756 1070.68 289.409 1069.22L293.193 1059.01C295.481 1060.3 298.033 1061.35 300.849 1062.18C303.724 1063 306.569 1063.41 309.385 1063.41C311.614 1063.41 313.228 1063.09 314.225 1062.44C315.281 1061.74 315.809 1060.83 315.809 1059.71C315.809 1058.83 315.486 1058.13 314.841 1057.6C314.196 1057.07 313.228 1056.69 311.937 1056.46L302.433 1054.78C298.678 1054.08 295.745 1052.7 293.633 1050.65C291.58 1048.54 290.553 1045.81 290.553 1042.46C290.553 1039.41 291.374 1036.77 293.017 1034.54C294.66 1032.26 297.006 1030.5 300.057 1029.26C303.108 1027.97 306.716 1027.33 310.881 1027.33C314.284 1027.33 317.51 1027.71 320.561 1028.47C323.67 1029.23 326.369 1030.44 328.657 1032.08L324.609 1042.02C322.79 1040.79 320.649 1039.79 318.185 1039.03C315.78 1038.21 313.521 1037.8 311.409 1037.8C308.886 1037.8 307.097 1038.18 306.041 1038.94C304.985 1039.65 304.457 1040.53 304.457 1041.58C304.457 1042.41 304.75 1043.11 305.337 1043.7C305.924 1044.22 306.862 1044.61 308.153 1044.84L317.657 1046.51C321.529 1047.16 324.492 1048.51 326.545 1050.56C328.657 1052.55 329.713 1055.28 329.713 1058.74C329.713 1061.97 328.833 1064.73 327.073 1067.02C325.372 1069.25 322.996 1070.98 319.945 1072.21C316.894 1073.38 313.345 1073.97 309.297 1073.97ZM362.97 1073V1010.96H392.274C399.431 1010.96 404.946 1012.66 408.818 1016.06C412.749 1019.47 414.714 1024.19 414.714 1030.23C414.714 1034.28 413.834 1037.74 412.074 1040.62C410.314 1043.43 407.762 1045.63 404.418 1047.22C401.074 1048.74 397.085 1049.5 392.45 1049.5L393.242 1047.3H397.642C400.223 1047.3 402.511 1048.01 404.506 1049.42C406.501 1050.82 408.143 1052.79 409.434 1055.31L418.85 1073H401.074L390.954 1053.2C390.309 1051.91 389.341 1051.03 388.05 1050.56C386.818 1050.09 385.41 1049.86 383.826 1049.86H379.25V1073H362.97ZM379.25 1038.33H389.458C392.626 1038.33 395.031 1037.71 396.674 1036.48C398.317 1035.19 399.138 1033.28 399.138 1030.76C399.138 1028.3 398.317 1026.45 396.674 1025.22C395.031 1023.98 392.626 1023.37 389.458 1023.37H379.25V1038.33ZM424.824 1073V1028.3H440.488V1073H424.824ZM424.472 1021.96V1007.88H440.928V1021.96H424.472ZM467.336 1073.97C463.171 1073.97 459.387 1073.56 455.984 1072.74C452.64 1071.86 449.795 1070.68 447.448 1069.22L451.232 1059.01C453.52 1060.3 456.072 1061.35 458.888 1062.18C461.763 1063 464.608 1063.41 467.424 1063.41C469.653 1063.41 471.267 1063.09 472.264 1062.44C473.32 1061.74 473.848 1060.83 473.848 1059.71C473.848 1058.83 473.525 1058.13 472.88 1057.6C472.235 1057.07 471.267 1056.69 469.976 1056.46L460.472 1054.78C456.717 1054.08 453.784 1052.7 451.672 1050.65C449.619 1048.54 448.592 1045.81 448.592 1042.46C448.592 1039.41 449.413 1036.77 451.056 1034.54C452.699 1032.26 455.045 1030.5 458.096 1029.26C461.147 1027.97 464.755 1027.33 468.92 1027.33C472.323 1027.33 475.549 1027.71 478.6 1028.47C481.709 1029.23 484.408 1030.44 486.696 1032.08L482.648 1042.02C480.829 1040.79 478.688 1039.79 476.224 1039.03C473.819 1038.21 471.56 1037.8 469.448 1037.8C466.925 1037.8 465.136 1038.18 464.08 1038.94C463.024 1039.65 462.496 1040.53 462.496 1041.58C462.496 1042.41 462.789 1043.11 463.376 1043.7C463.963 1044.22 464.901 1044.61 466.192 1044.84L475.696 1046.51C479.568 1047.16 482.531 1048.51 484.584 1050.56C486.696 1052.55 487.752 1055.28 487.752 1058.74C487.752 1061.97 486.872 1064.73 485.112 1067.02C483.411 1069.25 481.035 1070.98 477.984 1072.21C474.933 1073.38 471.384 1073.97 467.336 1073.97ZM518.276 1073.97C510.18 1073.97 503.873 1071.89 499.356 1067.72C494.897 1063.55 492.668 1057.83 492.668 1050.56C492.668 1046.04 493.606 1042.02 495.484 1038.5C497.361 1034.98 500.001 1032.26 503.404 1030.32C506.806 1028.33 510.796 1027.33 515.372 1027.33C519.889 1027.33 523.644 1028.33 526.636 1030.32C529.686 1032.26 531.974 1034.95 533.5 1038.42C535.025 1041.82 535.788 1045.78 535.788 1050.3V1053.64H505.78V1046.25H524.26L522.764 1047.48C522.764 1044.14 522.118 1041.67 520.828 1040.09C519.596 1038.45 517.836 1037.62 515.548 1037.62C512.908 1037.62 510.884 1038.62 509.476 1040.62C508.126 1042.55 507.452 1045.49 507.452 1049.42V1051C507.452 1054.93 508.42 1057.81 510.356 1059.62C512.292 1061.44 515.078 1062.35 518.716 1062.35C521.062 1062.35 523.262 1062.09 525.316 1061.56C527.428 1061.03 529.422 1060.18 531.3 1059.01L535.348 1069.22C533.118 1070.74 530.537 1071.91 527.604 1072.74C524.67 1073.56 521.561 1073.97 518.276 1073.97ZM565.783 1073.97C559.447 1073.97 554.665 1072.47 551.439 1069.48C548.271 1066.43 546.687 1061.82 546.687 1055.66V1039.82H538.327V1028.3H546.687V1017.74L562.351 1014.04V1028.3H573.263V1039.82H562.351V1055.05C562.351 1057.63 562.937 1059.36 564.111 1060.24C565.284 1061.06 566.692 1061.47 568.335 1061.47C569.332 1061.47 570.183 1061.41 570.887 1061.3C571.649 1061.12 572.441 1060.89 573.263 1060.59V1072.65C571.972 1073.18 570.681 1073.53 569.391 1073.7C568.159 1073.88 566.956 1073.97 565.783 1073.97ZM605.658 1073V1010.96H649.218V1023.37H621.938V1035.95H647.194V1048.36H621.938V1073H605.658ZM671.963 1073.97C668.091 1073.97 664.689 1073.06 661.755 1071.24C658.822 1069.36 656.505 1066.66 654.803 1063.14C653.161 1059.62 652.339 1055.46 652.339 1050.65C652.339 1045.78 653.161 1041.61 654.803 1038.15C656.505 1034.63 658.822 1031.96 661.755 1030.14C664.689 1028.27 668.091 1027.33 671.963 1027.33C675.425 1027.33 678.534 1028.15 681.291 1029.79C684.107 1031.43 685.955 1033.58 686.835 1036.22H685.955L686.923 1028.3H701.971C701.795 1030.29 701.619 1032.31 701.443 1034.37C701.326 1036.42 701.267 1038.45 701.267 1040.44V1073H685.779L685.603 1065.43H686.659C685.779 1068.01 683.931 1070.1 681.115 1071.68C678.358 1073.21 675.307 1073.97 671.963 1073.97ZM676.979 1062.35C679.619 1062.35 681.761 1061.44 683.403 1059.62C685.046 1057.75 685.867 1054.75 685.867 1050.65C685.867 1046.54 685.046 1043.58 683.403 1041.76C681.761 1039.88 679.619 1038.94 676.979 1038.94C674.339 1038.94 672.198 1039.88 670.555 1041.76C668.913 1043.58 668.091 1046.54 668.091 1050.65C668.091 1054.75 668.883 1057.75 670.467 1059.62C672.11 1061.44 674.281 1062.35 676.979 1062.35ZM710.996 1073V1040.53C710.996 1038.47 710.938 1036.42 710.82 1034.37C710.703 1032.31 710.527 1030.29 710.292 1028.3H725.428L727.1 1042.02H724.724C725.311 1038.68 726.25 1035.92 727.54 1033.75C728.831 1031.58 730.444 1029.97 732.38 1028.91C734.316 1027.86 736.604 1027.33 739.244 1027.33C740.476 1027.33 741.386 1027.39 741.972 1027.5C742.618 1027.56 743.292 1027.74 743.996 1028.03V1041.76C742.53 1041.11 741.356 1040.7 740.476 1040.53C739.596 1040.35 738.452 1040.26 737.044 1040.26C734.639 1040.26 732.674 1040.7 731.148 1041.58C729.623 1042.41 728.508 1043.7 727.804 1045.46C727.159 1047.22 726.836 1049.47 726.836 1052.23V1073H710.996ZM748.723 1073V1040.44C748.723 1038.45 748.664 1036.42 748.547 1034.37C748.429 1032.31 748.253 1030.29 748.019 1028.3H763.155L764.035 1036.04H763.067C764.357 1033.34 766.264 1031.23 768.787 1029.7C771.309 1028.12 774.272 1027.33 777.675 1027.33C780.96 1027.33 783.747 1028.12 786.035 1029.7C788.381 1031.23 790.083 1033.66 791.139 1037.01H789.643C791.109 1033.96 793.221 1031.58 795.979 1029.88C798.795 1028.18 801.933 1027.33 805.395 1027.33C810.499 1027.33 814.312 1028.88 816.835 1031.99C819.357 1035.04 820.619 1039.82 820.619 1046.34V1073H804.867V1046.86C804.867 1044.11 804.456 1042.17 803.635 1041.06C802.813 1039.88 801.493 1039.3 799.675 1039.3C797.387 1039.3 795.597 1040.12 794.307 1041.76C793.075 1043.4 792.459 1045.66 792.459 1048.54V1073H776.795V1046.86C776.795 1044.11 776.355 1042.17 775.475 1041.06C774.653 1039.88 773.363 1039.3 771.603 1039.3C769.315 1039.3 767.525 1040.12 766.235 1041.76C765.003 1043.4 764.387 1045.66 764.387 1048.54V1073H748.723ZM847.62 1073.97C843.748 1073.97 840.345 1073.06 837.412 1071.24C834.478 1069.36 832.161 1066.66 830.46 1063.14C828.817 1059.62 827.996 1055.46 827.996 1050.65C827.996 1045.78 828.817 1041.61 830.46 1038.15C832.161 1034.63 834.478 1031.96 837.412 1030.14C840.345 1028.27 843.748 1027.33 847.62 1027.33C851.081 1027.33 854.19 1028.15 856.948 1029.79C859.764 1031.43 861.612 1033.58 862.492 1036.22H861.612L862.58 1028.3H877.628C877.452 1030.29 877.276 1032.31 877.1 1034.37C876.982 1036.42 876.924 1038.45 876.924 1040.44V1073H861.436L861.26 1065.43H862.316C861.436 1068.01 859.588 1070.1 856.772 1071.68C854.014 1073.21 850.964 1073.97 847.62 1073.97ZM852.636 1062.35C855.276 1062.35 857.417 1061.44 859.06 1059.62C860.702 1057.75 861.524 1054.75 861.524 1050.65C861.524 1046.54 860.702 1043.58 859.06 1041.76C857.417 1039.88 855.276 1038.94 852.636 1038.94C849.996 1038.94 847.854 1039.88 846.212 1041.76C844.569 1043.58 843.748 1046.54 843.748 1050.65C843.748 1054.75 844.54 1057.75 846.124 1059.62C847.766 1061.44 849.937 1062.35 852.636 1062.35ZM903.812 1073.97C899.647 1073.97 895.863 1073.56 892.461 1072.74C889.117 1071.86 886.271 1070.68 883.925 1069.22L887.709 1059.01C889.997 1060.3 892.549 1061.35 895.365 1062.18C898.239 1063 901.085 1063.41 903.901 1063.41C906.13 1063.41 907.743 1063.09 908.741 1062.44C909.797 1061.74 910.325 1060.83 910.325 1059.71C910.325 1058.83 910.002 1058.13 909.357 1057.6C908.711 1057.07 907.743 1056.69 906.453 1056.46L896.949 1054.78C893.194 1054.08 890.261 1052.7 888.149 1050.65C886.095 1048.54 885.069 1045.81 885.069 1042.46C885.069 1039.41 885.89 1036.77 887.533 1034.54C889.175 1032.26 891.522 1030.5 894.573 1029.26C897.623 1027.97 901.231 1027.33 905.397 1027.33C908.799 1027.33 912.026 1027.71 915.077 1028.47C918.186 1029.23 920.885 1030.44 923.173 1032.08L919.125 1042.02C917.306 1040.79 915.165 1039.79 912.701 1039.03C910.295 1038.21 908.037 1037.8 905.925 1037.8C903.402 1037.8 901.613 1038.18 900.557 1038.94C899.501 1039.65 898.973 1040.53 898.973 1041.58C898.973 1042.41 899.266 1043.11 899.853 1043.7C900.439 1044.22 901.378 1044.61 902.669 1044.84L912.173 1046.51C916.045 1047.16 919.007 1048.51 921.061 1050.56C923.173 1052.55 924.229 1055.28 924.229 1058.74C924.229 1061.97 923.349 1064.73 921.589 1067.02C919.887 1069.25 917.511 1070.98 914.461 1072.21C911.41 1073.38 907.861 1073.97 903.812 1073.97ZM931.168 1073V1028.3H946.832V1073H931.168ZM930.816 1021.96V1007.88H947.272V1021.96H930.816Z" fill="white"/>
<path d="M1113.47 637.938L974.003 498.499C1014.43 449.969 1034.58 387.722 1030.28 324.708C1025.98 261.694 997.548 202.765 950.904 160.179C904.26 117.592 842.993 94.6284 779.849 96.0634C716.705 97.4985 656.545 123.222 611.883 167.883C567.222 212.545 541.498 272.705 540.063 335.849C538.628 398.993 561.592 460.26 604.179 506.904C646.765 553.548 705.694 581.978 768.708 586.281C831.722 590.583 893.969 570.426 942.499 530.003L1081.94 669.47C1084.01 671.54 1086.47 673.182 1089.17 674.303C1091.88 675.423 1094.78 676 1097.7 676C1100.63 676 1103.53 675.423 1106.24 674.303C1108.94 673.182 1111.4 671.54 1113.47 669.47C1115.54 667.399 1117.18 664.941 1118.3 662.236C1119.42 659.531 1120 656.632 1120 653.704C1120 650.776 1119.42 647.877 1118.3 645.172C1117.18 642.467 1115.54 640.009 1113.47 637.938ZM585.183 341.735C585.183 302.069 596.945 263.295 618.982 230.314C641.019 197.333 672.341 171.628 708.987 156.449C745.633 141.27 785.957 137.298 824.86 145.036C863.764 152.775 899.498 171.875 927.546 199.923C955.594 227.971 974.695 263.706 982.433 302.609C990.171 341.512 986.2 381.836 971.02 418.482C955.841 455.128 930.136 486.45 897.155 508.487C864.175 530.524 825.4 542.286 785.735 542.286C732.563 542.227 681.586 521.079 643.988 483.481C606.39 445.883 585.242 394.906 585.183 341.735Z" fill="white" fill-opacity="0.2"/>
</svg>
