<svg width="1216" height="1216" viewBox="0 0 1216 1216" fill="none" xmlns="http://www.w3.org/2000/svg">
<rect width="1216" height="1216" fill="#6328C3"/>
<path d="M101.72 1073V1010.96H118V1037.54H118.176L141.936 1010.96H160.944L130.848 1043.61V1037.18L162.616 1073H142.992L118.176 1045.02H118V1073H101.72ZM185.182 1073.97C177.086 1073.97 170.779 1071.89 166.262 1067.72C161.803 1063.55 159.574 1057.83 159.574 1050.56C159.574 1046.04 160.512 1042.02 162.39 1038.5C164.267 1034.98 166.907 1032.26 170.31 1030.32C173.712 1028.33 177.702 1027.33 182.278 1027.33C186.795 1027.33 190.55 1028.33 193.542 1030.32C196.592 1032.26 198.88 1034.95 200.406 1038.42C201.931 1041.82 202.694 1045.78 202.694 1050.3V1053.64H172.686V1046.25H191.166L189.67 1047.48C189.67 1044.14 189.024 1041.67 187.734 1040.09C186.502 1038.45 184.742 1037.62 182.454 1037.62C179.814 1037.62 177.79 1038.62 176.382 1040.62C175.032 1042.55 174.358 1045.49 174.358 1049.42V1051C174.358 1054.93 175.326 1057.81 177.262 1059.62C179.198 1061.44 181.984 1062.35 185.622 1062.35C187.968 1062.35 190.168 1062.09 192.222 1061.56C194.334 1061.03 196.328 1060.18 198.206 1059.01L202.254 1069.22C200.024 1070.74 197.443 1071.91 194.51 1072.74C191.576 1073.56 188.467 1073.97 185.182 1073.97ZM210.153 1073V1008.23H225.817V1073H210.153ZM253.104 1073.97C249.232 1073.97 245.829 1073.06 242.896 1071.24C239.963 1069.36 237.645 1066.66 235.944 1063.14C234.301 1059.62 233.48 1055.46 233.48 1050.65C233.48 1045.78 234.301 1041.61 235.944 1038.15C237.645 1034.63 239.963 1031.96 242.896 1030.14C245.829 1028.27 249.232 1027.33 253.104 1027.33C256.565 1027.33 259.675 1028.15 262.432 1029.79C265.248 1031.43 267.096 1033.58 267.976 1036.22H267.096L268.064 1028.3H283.112C282.936 1030.29 282.76 1032.31 282.584 1034.37C282.467 1036.42 282.408 1038.45 282.408 1040.44V1073H266.92L266.744 1065.43H267.8C266.92 1068.01 265.072 1070.1 262.256 1071.68C259.499 1073.21 256.448 1073.97 253.104 1073.97ZM258.12 1062.35C260.76 1062.35 262.901 1061.44 264.544 1059.62C266.187 1057.75 267.008 1054.75 267.008 1050.65C267.008 1046.54 266.187 1043.58 264.544 1041.76C262.901 1039.88 260.76 1038.94 258.12 1038.94C255.48 1038.94 253.339 1039.88 251.696 1041.76C250.053 1043.58 249.232 1046.54 249.232 1050.65C249.232 1054.75 250.024 1057.75 251.608 1059.62C253.251 1061.44 255.421 1062.35 258.12 1062.35ZM309.297 1073.97C305.132 1073.97 301.348 1073.56 297.945 1072.74C294.601 1071.86 291.756 1070.68 289.409 1069.22L293.193 1059.01C295.481 1060.3 298.033 1061.35 300.849 1062.18C303.724 1063 306.569 1063.41 309.385 1063.41C311.614 1063.41 313.228 1063.09 314.225 1062.44C315.281 1061.74 315.809 1060.83 315.809 1059.71C315.809 1058.83 315.486 1058.13 314.841 1057.6C314.196 1057.07 313.228 1056.69 311.937 1056.46L302.433 1054.78C298.678 1054.08 295.745 1052.7 293.633 1050.65C291.58 1048.54 290.553 1045.81 290.553 1042.46C290.553 1039.41 291.374 1036.77 293.017 1034.54C294.66 1032.26 297.006 1030.5 300.057 1029.26C303.108 1027.97 306.716 1027.33 310.881 1027.33C314.284 1027.33 317.51 1027.71 320.561 1028.47C323.67 1029.23 326.369 1030.44 328.657 1032.08L324.609 1042.02C322.79 1040.79 320.649 1039.79 318.185 1039.03C315.78 1038.21 313.521 1037.8 311.409 1037.8C308.886 1037.8 307.097 1038.18 306.041 1038.94C304.985 1039.65 304.457 1040.53 304.457 1041.58C304.457 1042.41 304.75 1043.11 305.337 1043.7C305.924 1044.22 306.862 1044.61 308.153 1044.84L317.657 1046.51C321.529 1047.16 324.492 1048.51 326.545 1050.56C328.657 1052.55 329.713 1055.28 329.713 1058.74C329.713 1061.97 328.833 1064.73 327.073 1067.02C325.372 1069.25 322.996 1070.98 319.945 1072.21C316.894 1073.38 313.345 1073.97 309.297 1073.97ZM363.234 1073V1010.96H377.314L397.642 1056.46H394.738L414.978 1010.96H429.146V1073H414.45V1034.98H418.234L400.634 1073H391.482L373.794 1034.98H377.842V1073H363.234ZM457.463 1073.97C453.591 1073.97 450.189 1073.06 447.255 1071.24C444.322 1069.36 442.005 1066.66 440.303 1063.14C438.661 1059.62 437.839 1055.46 437.839 1050.65C437.839 1045.78 438.661 1041.61 440.303 1038.15C442.005 1034.63 444.322 1031.96 447.255 1030.14C450.189 1028.27 453.591 1027.33 457.463 1027.33C460.925 1027.33 464.034 1028.15 466.791 1029.79C469.607 1031.43 471.455 1033.58 472.335 1036.22H471.455L472.423 1028.3H487.471C487.295 1030.29 487.119 1032.31 486.943 1034.37C486.826 1036.42 486.767 1038.45 486.767 1040.44V1073H471.279L471.103 1065.43H472.159C471.279 1068.01 469.431 1070.1 466.615 1071.68C463.858 1073.21 460.807 1073.97 457.463 1073.97ZM462.479 1062.35C465.119 1062.35 467.261 1061.44 468.903 1059.62C470.546 1057.75 471.367 1054.75 471.367 1050.65C471.367 1046.54 470.546 1043.58 468.903 1041.76C467.261 1039.88 465.119 1038.94 462.479 1038.94C459.839 1038.94 457.698 1039.88 456.055 1041.76C454.413 1043.58 453.591 1046.54 453.591 1050.65C453.591 1054.75 454.383 1057.75 455.967 1059.62C457.61 1061.44 459.781 1062.35 462.479 1062.35ZM513.656 1073.97C509.491 1073.97 505.707 1073.56 502.304 1072.74C498.96 1071.86 496.115 1070.68 493.768 1069.22L497.552 1059.01C499.84 1060.3 502.392 1061.35 505.208 1062.18C508.083 1063 510.928 1063.41 513.744 1063.41C515.974 1063.41 517.587 1063.09 518.584 1062.44C519.64 1061.74 520.168 1060.83 520.168 1059.71C520.168 1058.83 519.846 1058.13 519.2 1057.6C518.555 1057.07 517.587 1056.69 516.296 1056.46L506.792 1054.78C503.038 1054.08 500.104 1052.7 497.992 1050.65C495.939 1048.54 494.912 1045.81 494.912 1042.46C494.912 1039.41 495.734 1036.77 497.376 1034.54C499.019 1032.26 501.366 1030.5 504.416 1029.26C507.467 1027.97 511.075 1027.33 515.24 1027.33C518.643 1027.33 521.87 1027.71 524.92 1028.47C528.03 1029.23 530.728 1030.44 533.016 1032.08L528.968 1042.02C527.15 1040.79 525.008 1039.79 522.544 1039.03C520.139 1038.21 517.88 1037.8 515.768 1037.8C513.246 1037.8 511.456 1038.18 510.4 1038.94C509.344 1039.65 508.816 1040.53 508.816 1041.58C508.816 1042.41 509.11 1043.11 509.696 1043.7C510.283 1044.22 511.222 1044.61 512.512 1044.84L522.016 1046.51C525.888 1047.16 528.851 1048.51 530.904 1050.56C533.016 1052.55 534.072 1055.28 534.072 1058.74C534.072 1061.97 533.192 1064.73 531.432 1067.02C529.731 1069.25 527.355 1070.98 524.304 1072.21C521.254 1073.38 517.704 1073.97 513.656 1073.97ZM557.468 1073.97C551.777 1073.97 547.553 1072.41 544.796 1069.3C542.097 1066.14 540.748 1061.35 540.748 1054.96V1028.3H556.412V1055.05C556.412 1057.39 556.881 1059.15 557.82 1060.33C558.817 1061.44 560.313 1062 562.308 1062C564.537 1062 566.356 1061.21 567.764 1059.62C569.231 1057.98 569.964 1055.84 569.964 1053.2V1028.3H585.628V1073H570.404V1064.99H571.724C570.316 1067.87 568.409 1070.1 566.004 1071.68C563.599 1073.21 560.753 1073.97 557.468 1073.97ZM595.41 1073V1008.23H611.074V1046.34H611.25L626.21 1028.3H644.69L624.45 1052.23V1046.86L645.482 1073H626.562L611.25 1054.26H611.074V1073H595.41ZM666.494 1073L695.534 1010.96H708.734L737.95 1073H721.67L714.19 1055.93L720.438 1060.42H684.006L690.166 1055.93L682.774 1073H666.494ZM702.046 1027.68L691.75 1052.23L689.286 1048.1H715.07L712.87 1052.23L702.486 1027.68H702.046ZM740.903 1092.01V1040.44C740.903 1038.45 740.844 1036.42 740.727 1034.37C740.609 1032.31 740.433 1030.29 740.199 1028.3H755.335L756.303 1036.22H755.423C756.244 1033.58 758.063 1031.43 760.879 1029.79C763.695 1028.15 766.833 1027.33 770.295 1027.33C774.167 1027.33 777.569 1028.27 780.502 1030.14C783.436 1031.96 785.724 1034.63 787.367 1038.15C789.068 1041.61 789.919 1045.78 789.919 1050.65C789.919 1055.46 789.068 1059.62 787.367 1063.14C785.724 1066.66 783.436 1069.36 780.502 1071.24C777.569 1073.06 774.167 1073.97 770.295 1073.97C766.892 1073.97 763.812 1073.21 761.055 1071.68C758.297 1070.1 756.479 1068.01 755.599 1065.43H756.567V1092.01H740.903ZM765.279 1062.35C767.977 1062.35 770.119 1061.44 771.703 1059.62C773.345 1057.75 774.167 1054.75 774.167 1050.65C774.167 1046.54 773.345 1043.58 771.703 1041.76C770.119 1039.88 767.977 1038.94 765.279 1038.94C762.639 1038.94 760.497 1039.88 758.855 1041.76C757.212 1043.58 756.391 1046.54 756.391 1050.65C756.391 1054.75 757.212 1057.75 758.855 1059.62C760.497 1061.44 762.639 1062.35 765.279 1062.35ZM819.887 1073.97C814.901 1073.97 810.589 1073.03 806.951 1071.15C803.314 1069.27 800.498 1066.61 798.503 1063.14C796.509 1059.62 795.511 1055.46 795.511 1050.65C795.511 1045.78 796.509 1041.61 798.503 1038.15C800.498 1034.69 803.314 1032.02 806.951 1030.14C810.589 1028.27 814.901 1027.33 819.887 1027.33C824.815 1027.33 829.098 1028.27 832.735 1030.14C836.373 1032.02 839.189 1034.72 841.183 1038.24C843.178 1041.7 844.175 1045.84 844.175 1050.65C844.175 1055.4 843.178 1059.54 841.183 1063.06C839.189 1066.58 836.373 1069.27 832.735 1071.15C829.098 1073.03 824.815 1073.97 819.887 1073.97ZM819.887 1062.35C822.469 1062.35 824.522 1061.44 826.047 1059.62C827.573 1057.75 828.335 1054.75 828.335 1050.65C828.335 1046.54 827.573 1043.58 826.047 1041.76C824.522 1039.88 822.469 1038.94 819.887 1038.94C817.247 1038.94 815.165 1039.88 813.639 1041.76C812.114 1043.58 811.351 1046.54 811.351 1050.65C811.351 1054.75 812.114 1057.75 813.639 1059.62C815.165 1061.44 817.247 1062.35 819.887 1062.35ZM874.298 1073.97C867.962 1073.97 863.181 1072.47 859.954 1069.48C856.786 1066.43 855.202 1061.82 855.202 1055.66V1039.82H846.842V1028.3H855.202V1017.74L870.866 1014.04V1028.3H881.778V1039.82H870.866V1055.05C870.866 1057.63 871.453 1059.36 872.626 1060.24C873.799 1061.06 875.207 1061.47 876.85 1061.47C877.847 1061.47 878.698 1061.41 879.402 1061.3C880.165 1061.12 880.957 1060.89 881.778 1060.59V1072.65C880.487 1073.18 879.197 1073.53 877.906 1073.7C876.674 1073.88 875.471 1073.97 874.298 1073.97ZM911.01 1073.97C902.914 1073.97 896.607 1071.89 892.09 1067.72C887.631 1063.55 885.402 1057.83 885.402 1050.56C885.402 1046.04 886.341 1042.02 888.218 1038.5C890.095 1034.98 892.735 1032.26 896.138 1030.32C899.541 1028.33 903.53 1027.33 908.106 1027.33C912.623 1027.33 916.378 1028.33 919.37 1030.32C922.421 1032.26 924.709 1034.95 926.234 1038.42C927.759 1041.82 928.522 1045.78 928.522 1050.3V1053.64H898.514V1046.25H916.994L915.498 1047.48C915.498 1044.14 914.853 1041.67 913.562 1040.09C912.33 1038.45 910.57 1037.62 908.282 1037.62C905.642 1037.62 903.618 1038.62 902.21 1040.62C900.861 1042.55 900.186 1045.49 900.186 1049.42V1051C900.186 1054.93 901.154 1057.81 903.09 1059.62C905.026 1061.44 907.813 1062.35 911.45 1062.35C913.797 1062.35 915.997 1062.09 918.05 1061.56C920.162 1061.03 922.157 1060.18 924.034 1059.01L928.082 1069.22C925.853 1070.74 923.271 1071.91 920.338 1072.74C917.405 1073.56 914.295 1073.97 911.01 1073.97ZM935.981 1073V1008.23H951.645V1046.34H951.821L966.781 1028.3H985.261L965.021 1052.23V1046.86L986.053 1073H967.133L951.821 1054.26H951.645V1073H935.981ZM1011.38 1073.97C1003.29 1073.97 996.982 1071.89 992.465 1067.72C988.006 1063.55 985.777 1057.83 985.777 1050.56C985.777 1046.04 986.716 1042.02 988.593 1038.5C990.47 1034.98 993.11 1032.26 996.513 1030.32C999.916 1028.33 1003.9 1027.33 1008.48 1027.33C1013 1027.33 1016.75 1028.33 1019.74 1030.32C1022.8 1032.26 1025.08 1034.95 1026.61 1038.42C1028.13 1041.82 1028.9 1045.78 1028.9 1050.3V1053.64H998.889V1046.25H1017.37L1015.87 1047.48C1015.87 1044.14 1015.23 1041.67 1013.94 1040.09C1012.7 1038.45 1010.94 1037.62 1008.66 1037.62C1006.02 1037.62 1003.99 1038.62 1002.58 1040.62C1001.24 1042.55 1000.56 1045.49 1000.56 1049.42V1051C1000.56 1054.93 1001.53 1057.81 1003.46 1059.62C1005.4 1061.44 1008.19 1062.35 1011.82 1062.35C1014.17 1062.35 1016.37 1062.09 1018.42 1061.56C1020.54 1061.03 1022.53 1060.18 1024.41 1059.01L1028.46 1069.22C1026.23 1070.74 1023.65 1071.91 1020.71 1072.74C1017.78 1073.56 1014.67 1073.97 1011.38 1073.97ZM1036.36 1073V1040.53C1036.36 1038.47 1036.3 1036.42 1036.18 1034.37C1036.06 1032.31 1035.89 1030.29 1035.65 1028.3H1050.79L1052.46 1042.02H1050.08C1050.67 1038.68 1051.61 1035.92 1052.9 1033.75C1054.19 1031.58 1055.8 1029.97 1057.74 1028.91C1059.68 1027.86 1061.96 1027.33 1064.6 1027.33C1065.84 1027.33 1066.74 1027.39 1067.33 1027.5C1067.98 1027.56 1068.65 1027.74 1069.36 1028.03V1041.76C1067.89 1041.11 1066.72 1040.7 1065.84 1040.53C1064.96 1040.35 1063.81 1040.26 1062.4 1040.26C1060 1040.26 1058.03 1040.7 1056.51 1041.58C1054.98 1042.41 1053.87 1043.7 1053.16 1045.46C1052.52 1047.22 1052.2 1049.47 1052.2 1052.23V1073H1036.36Z" fill="white"/>
<path d="M1071.96 144.106C1041.15 113.304 999.375 96 955.813 96C912.251 96 870.473 113.304 839.669 144.106L526.643 457.093C496.484 488.027 479.728 529.598 480.003 572.799C480.279 616 497.565 657.354 528.117 687.9C558.668 718.447 600.025 735.727 643.227 735.997C686.43 736.267 727.999 719.505 758.93 689.343L1071.99 376.356C1102.74 345.531 1120.01 303.766 1120 260.225C1119.99 216.684 1102.72 174.923 1071.96 144.106ZM724.05 654.464C702.502 676.016 673.274 688.125 642.797 688.128C612.321 688.131 583.091 676.027 561.538 654.479C539.986 632.932 527.876 603.705 527.873 573.229C527.871 542.753 539.975 513.524 561.523 491.972L700.581 352.918L863.108 515.41L724.05 654.464ZM1037.08 341.477L897.957 480.531L735.492 318.039L874.58 178.985C896.214 157.852 925.307 146.099 955.55 146.276C985.793 146.452 1014.75 158.544 1036.13 179.929C1057.52 201.314 1069.61 230.267 1069.79 260.509C1069.96 290.751 1058.21 319.844 1037.08 341.477ZM989.49 275.913C991.784 278.204 993.604 280.925 994.845 283.92C996.087 286.915 996.726 290.126 996.726 293.368C996.726 296.61 996.087 299.82 994.845 302.815C993.604 305.81 991.784 308.531 989.49 310.823L915.474 384.837C913.182 387.127 910.461 388.943 907.467 390.182C904.472 391.421 901.263 392.057 898.023 392.056C894.783 392.055 891.574 391.415 888.581 390.174C885.588 388.932 882.869 387.114 880.579 384.821C878.288 382.529 876.472 379.808 875.233 376.814C873.995 373.82 873.358 370.611 873.359 367.371C873.361 364.131 874 360.922 875.242 357.929C876.483 354.936 878.302 352.217 880.594 349.927L954.61 275.913C959.236 271.289 965.509 268.692 972.05 268.692C978.591 268.692 984.864 271.289 989.49 275.913Z" fill="white" fill-opacity="0.2"/>
</svg>
