<svg width="1216" height="1216" viewBox="0 0 1216 1216" fill="none" xmlns="http://www.w3.org/2000/svg">
<rect width="1216" height="1216" fill="#6328C3"/>
<path d="M129.264 1073.97C119.995 1073.97 113.043 1071.68 108.408 1067.1C103.773 1062.53 101.456 1055.69 101.456 1046.6V1010.96H117.648V1046.69C117.648 1051.21 118.587 1054.64 120.464 1056.98C122.341 1059.27 125.275 1060.42 129.264 1060.42C133.253 1060.42 136.187 1059.27 138.064 1056.98C139.941 1054.64 140.88 1051.21 140.88 1046.69V1010.96H156.896V1046.6C156.896 1055.69 154.608 1062.53 150.032 1067.1C145.456 1071.68 138.533 1073.97 129.264 1073.97ZM167.806 1073V1010.96H184.086V1037.54H184.262L208.022 1010.96H227.03L196.934 1043.61V1037.18L228.702 1073H209.078L184.262 1045.02H184.086V1073H167.806ZM230.031 1073V1010.96H244.111L264.439 1056.46H261.535L281.775 1010.96H295.943V1073H281.247V1034.98H285.031L267.431 1073H258.279L240.591 1034.98H244.639V1073H230.031ZM307.54 1073V1010.96H337.988C345.146 1010.96 350.543 1012.72 354.18 1016.24C357.818 1019.7 359.636 1024.42 359.636 1030.41C359.636 1036.33 357.818 1041.06 354.18 1044.58C350.543 1048.1 345.146 1049.86 337.988 1049.86H323.82V1073H307.54ZM323.82 1037.36H335.876C338.634 1037.36 340.687 1036.77 342.036 1035.6C343.386 1034.37 344.06 1032.64 344.06 1030.41C344.06 1028.18 343.386 1026.45 342.036 1025.22C340.687 1023.98 338.634 1023.37 335.876 1023.37H323.82V1037.36ZM367.697 1073V1010.96H398.145C405.302 1010.96 410.699 1012.72 414.337 1016.24C417.974 1019.7 419.793 1024.42 419.793 1030.41C419.793 1036.33 417.974 1041.06 414.337 1044.58C410.699 1048.1 405.302 1049.86 398.145 1049.86H383.977V1073H367.697ZM383.977 1037.36H396.033C398.79 1037.36 400.843 1036.77 402.193 1035.6C403.542 1034.37 404.217 1032.64 404.217 1030.41C404.217 1028.18 403.542 1026.45 402.193 1025.22C400.843 1023.98 398.79 1023.37 396.033 1023.37H383.977V1037.36ZM413.666 1073L442.706 1010.96H455.906L485.122 1073H468.842L461.362 1055.93L467.61 1060.42H431.178L437.338 1055.93L429.946 1073H413.666ZM449.218 1027.68L438.922 1052.23L436.458 1048.1H462.242L460.042 1052.23L449.658 1027.68H449.218ZM488.954 1073V1010.96H505.234V1073H488.954ZM595.038 1073.97C592.339 1073.44 589.64 1072.47 586.942 1071.06C584.302 1069.6 581.779 1067.9 579.374 1065.96L582.542 1066.14C579.667 1068.54 576.44 1070.45 572.862 1071.86C569.342 1073.26 565.616 1073.97 561.686 1073.97C556.816 1073.97 552.592 1073.23 549.014 1071.77C545.435 1070.24 542.678 1068.16 540.742 1065.52C538.806 1062.82 537.838 1059.68 537.838 1056.1C537.838 1052.11 539.011 1048.74 541.358 1045.98C543.704 1043.17 546.784 1040.73 550.598 1038.68L553.766 1037.1L551.302 1040.09C549.014 1038.09 547.254 1035.89 546.022 1033.49C544.848 1031.08 544.262 1028.59 544.262 1026.01C544.262 1022.84 545.083 1020.05 546.726 1017.65C548.368 1015.24 550.656 1013.37 553.59 1012.02C556.523 1010.67 559.984 1009.99 563.974 1009.99C569.195 1009.99 573.36 1011.34 576.47 1014.04C579.638 1016.68 581.222 1020.26 581.222 1024.78C581.222 1027.12 580.752 1029.32 579.814 1031.38C578.934 1033.43 577.526 1035.31 575.59 1037.01C573.654 1038.71 571.248 1040.23 568.374 1041.58L568.726 1038.77L582.19 1051.62H579.022C580.547 1049.21 581.691 1046.57 582.454 1043.7C583.275 1040.82 583.803 1037.83 584.038 1034.72H596.798C596.563 1039.47 595.712 1044.05 594.246 1048.45C592.779 1052.79 590.755 1056.66 588.174 1060.06L588.086 1056.81C589.787 1058.39 591.606 1059.68 593.542 1060.68C595.478 1061.62 597.56 1062.35 599.79 1062.88L595.038 1073.97ZM562.742 1062.18C564.971 1062.18 566.966 1061.79 568.726 1061.03C570.544 1060.27 572.246 1059.13 573.83 1057.6L573.478 1060.94L555.79 1044.31L562.302 1044.4L560.014 1045.46C558.664 1046.16 557.462 1047.01 556.406 1048.01C555.408 1048.95 554.646 1050 554.118 1051.18C553.59 1052.29 553.326 1053.55 553.326 1054.96C553.326 1057.19 554.147 1058.95 555.79 1060.24C557.491 1061.53 559.808 1062.18 562.742 1062.18ZM563.974 1020.11C562.214 1020.11 560.835 1020.61 559.838 1021.61C558.84 1022.61 558.342 1023.95 558.342 1025.66C558.342 1026.59 558.518 1027.5 558.87 1028.38C559.28 1029.21 559.867 1030.09 560.63 1031.02C561.451 1031.96 562.478 1033.05 563.71 1034.28L560.278 1034.37C563.387 1032.96 565.646 1031.58 567.054 1030.23C568.52 1028.88 569.254 1027.21 569.254 1025.22C569.254 1023.51 568.755 1022.25 567.758 1021.43C566.819 1020.55 565.558 1020.11 563.974 1020.11ZM628.22 1041.94C628.22 1035.48 629.481 1029.88 632.004 1025.13C634.527 1020.32 638.135 1016.59 642.828 1013.95C647.521 1011.31 653.065 1009.99 659.46 1009.99C665.913 1009.99 671.487 1011.31 676.18 1013.95C680.873 1016.59 684.481 1020.32 687.004 1025.13C689.585 1029.88 690.876 1035.48 690.876 1041.94C690.876 1048.33 689.585 1053.93 687.004 1058.74C684.481 1063.55 680.873 1067.31 676.18 1070.01C671.487 1072.65 665.913 1073.97 659.46 1073.97C653.065 1073.97 647.521 1072.65 642.828 1070.01C638.193 1067.31 634.585 1063.55 632.004 1058.74C629.481 1053.93 628.22 1048.33 628.22 1041.94ZM645.204 1041.94C645.204 1047.74 646.377 1052.29 648.724 1055.58C651.071 1058.8 654.649 1060.42 659.46 1060.42C664.271 1060.42 667.879 1058.8 670.284 1055.58C672.689 1052.29 673.892 1047.74 673.892 1041.94C673.892 1036.13 672.689 1031.61 670.284 1028.38C667.879 1025.16 664.271 1023.54 659.46 1023.54C654.649 1023.54 651.071 1025.16 648.724 1028.38C646.377 1031.55 645.204 1036.07 645.204 1041.94ZM723.938 1073.97C718.952 1073.97 714.2 1073.38 709.682 1072.21C705.224 1070.98 701.469 1069.33 698.418 1067.28L702.994 1054.7C704.93 1055.93 707.042 1056.98 709.33 1057.86C711.618 1058.74 713.994 1059.45 716.458 1059.98C718.981 1060.45 721.533 1060.68 724.114 1060.68C727.986 1060.68 730.656 1060.18 732.122 1059.18C733.648 1058.19 734.41 1056.9 734.41 1055.31C734.41 1053.9 733.912 1052.82 732.914 1052.06C731.917 1051.23 730.04 1050.53 727.282 1049.94L716.546 1047.74C710.856 1046.57 706.602 1044.55 703.786 1041.67C700.97 1038.74 699.562 1034.93 699.562 1030.23C699.562 1026.13 700.648 1022.58 702.818 1019.58C705.048 1016.53 708.157 1014.19 712.146 1012.54C716.136 1010.84 720.8 1009.99 726.138 1009.99C730.538 1009.99 734.674 1010.61 738.546 1011.84C742.418 1013.01 745.586 1014.66 748.05 1016.77L743.474 1028.56C741.128 1026.86 738.488 1025.57 735.554 1024.69C732.621 1023.75 729.365 1023.28 725.786 1023.28C722.384 1023.28 719.802 1023.81 718.042 1024.86C716.341 1025.86 715.49 1027.3 715.49 1029.18C715.49 1030.47 715.989 1031.58 716.986 1032.52C718.042 1033.4 719.949 1034.13 722.706 1034.72L733.266 1036.83C738.957 1037.95 743.21 1039.94 746.026 1042.82C748.901 1045.69 750.338 1049.45 750.338 1054.08C750.338 1058.07 749.224 1061.56 746.994 1064.55C744.824 1067.54 741.773 1069.86 737.842 1071.5C733.912 1073.15 729.277 1073.97 723.938 1073.97ZM790.81 1073.97C784.063 1073.97 778.226 1072.65 773.298 1070.01C768.428 1067.37 764.644 1063.64 761.946 1058.83C759.306 1054.02 757.986 1048.39 757.986 1041.94C757.986 1035.48 759.306 1029.88 761.946 1025.13C764.644 1020.32 768.428 1016.59 773.298 1013.95C778.226 1011.31 784.063 1009.99 790.81 1009.99C795.092 1009.99 798.994 1010.58 802.514 1011.75C806.034 1012.87 808.996 1014.48 811.402 1016.59L806.562 1029.35C803.863 1027.42 801.37 1026.07 799.082 1025.3C796.852 1024.48 794.3 1024.07 791.426 1024.07C786.146 1024.07 782.068 1025.63 779.194 1028.74C776.378 1031.79 774.97 1036.19 774.97 1041.94C774.97 1047.74 776.378 1052.2 779.194 1055.31C782.068 1058.36 786.146 1059.89 791.426 1059.89C794.3 1059.89 796.852 1059.51 799.082 1058.74C801.37 1057.92 803.863 1056.54 806.562 1054.61L811.402 1067.37C808.996 1069.48 806.034 1071.12 802.514 1072.3C798.994 1073.41 795.092 1073.97 790.81 1073.97ZM819.9 1073V1010.96H864.428V1023.37H835.476V1035.25H862.316V1047.74H835.476V1060.5H864.428V1073H819.9Z" fill="white"/>
<path d="M1069 120.498H916C902.474 120.498 889.502 125.657 879.938 134.838C870.373 144.02 865 156.472 865 169.457V659.042C865 672.026 870.373 684.479 879.938 693.66C889.502 702.842 902.474 708 916 708H1069C1082.53 708 1095.5 702.842 1105.06 693.66C1114.63 684.479 1120 672.026 1120 659.042V169.457C1120 156.472 1114.63 144.02 1105.06 134.838C1095.5 125.657 1082.53 120.498 1069 120.498ZM1069 659.042H916V561.125H992.5C999.263 561.125 1005.75 558.546 1010.53 553.955C1015.31 549.364 1018 543.138 1018 536.645C1018 530.153 1015.31 523.927 1010.53 519.336C1005.75 514.745 999.263 512.166 992.5 512.166H916V438.728H992.5C999.263 438.728 1005.75 436.149 1010.53 431.559C1015.31 426.968 1018 420.742 1018 414.249C1018 407.757 1015.31 401.531 1010.53 396.94C1005.75 392.349 999.263 389.77 992.5 389.77H916V316.332H992.5C999.263 316.332 1005.75 313.753 1010.53 309.163C1015.31 304.572 1018 298.345 1018 291.853C1018 285.361 1015.31 279.134 1010.53 274.544C1005.75 269.953 999.263 267.374 992.5 267.374H916V169.457H1069V659.042ZM653.541 103.179C651.173 100.903 648.361 99.0979 645.265 97.866C642.169 96.6341 638.851 96 635.5 96C632.149 96 628.831 96.6341 625.735 97.866C622.639 99.0979 619.827 100.903 617.459 103.179L515.459 201.096C513.091 203.371 511.214 206.072 509.935 209.044C508.655 212.015 507.997 215.2 508 218.415V659.042C508 672.026 513.373 684.479 522.938 693.66C532.502 702.842 545.474 708 559 708H712C725.526 708 738.498 702.842 748.062 693.66C757.627 684.479 763 672.026 763 659.042V218.415C763.003 215.2 762.345 212.015 761.065 209.044C759.786 206.072 757.909 203.371 755.541 201.096L653.541 103.179ZM559 561.125V267.374H610V561.125H559ZM661 267.374H712V561.125H661V267.374ZM635.5 155.106L701.449 218.415H569.551L635.5 155.106ZM559 659.042V610.083H712V659.042H559Z" fill="white" fill-opacity="0.2"/>
</svg>
