<svg width="1216" height="1216" viewBox="0 0 1216 1216" fill="none" xmlns="http://www.w3.org/2000/svg">
<rect width="1216" height="1216" fill="#6328C3"/>
<path d="M122.4 1073L94.24 1010.96H111.664L131.728 1058.13H126.888L146.864 1010.96H163.672L135.512 1073H122.4ZM166.754 1073V1028.3H182.418V1073H166.754ZM166.402 1021.96V1007.88H182.858V1021.96H166.402ZM209.882 1073.97C206.068 1073.97 202.666 1073.06 199.674 1071.24C196.682 1069.36 194.335 1066.66 192.634 1063.14C190.932 1059.62 190.082 1055.46 190.082 1050.65C190.082 1045.78 190.903 1041.61 192.546 1038.15C194.247 1034.63 196.594 1031.96 199.586 1030.14C202.636 1028.27 206.068 1027.33 209.882 1027.33C213.284 1027.33 216.364 1028.12 219.122 1029.7C221.879 1031.23 223.727 1033.28 224.666 1035.86H223.346V1008.23H239.01V1073H223.61V1064.99H224.754C223.932 1067.69 222.114 1069.86 219.298 1071.5C216.54 1073.15 213.402 1073.97 209.882 1073.97ZM214.898 1062.35C217.479 1062.35 219.591 1061.44 221.234 1059.62C222.935 1057.75 223.786 1054.75 223.786 1050.65C223.786 1046.54 222.935 1043.58 221.234 1041.76C219.591 1039.88 217.479 1038.94 214.898 1038.94C212.258 1038.94 210.087 1039.88 208.386 1041.76C206.743 1043.58 205.922 1046.54 205.922 1050.65C205.922 1054.75 206.743 1057.75 208.386 1059.62C210.087 1061.44 212.258 1062.35 214.898 1062.35ZM272.322 1073.97C264.226 1073.97 257.92 1071.89 253.402 1067.72C248.944 1063.55 246.714 1057.83 246.714 1050.56C246.714 1046.04 247.653 1042.02 249.53 1038.5C251.408 1034.98 254.048 1032.26 257.45 1030.32C260.853 1028.33 264.842 1027.33 269.418 1027.33C273.936 1027.33 277.69 1028.33 280.682 1030.32C283.733 1032.26 286.021 1034.95 287.546 1038.42C289.072 1041.82 289.834 1045.78 289.834 1050.3V1053.64H259.826V1046.25H278.306L276.81 1047.48C276.81 1044.14 276.165 1041.67 274.874 1040.09C273.642 1038.45 271.882 1037.62 269.594 1037.62C266.954 1037.62 264.93 1038.62 263.522 1040.62C262.173 1042.55 261.498 1045.49 261.498 1049.42V1051C261.498 1054.93 262.466 1057.81 264.402 1059.62C266.338 1061.44 269.125 1062.35 272.762 1062.35C275.109 1062.35 277.309 1062.09 279.362 1061.56C281.474 1061.03 283.469 1060.18 285.346 1059.01L289.394 1069.22C287.165 1070.74 284.584 1071.91 281.65 1072.74C278.717 1073.56 275.608 1073.97 272.322 1073.97ZM319.645 1073.97C314.658 1073.97 310.346 1073.03 306.709 1071.15C303.072 1069.27 300.256 1066.61 298.261 1063.14C296.266 1059.62 295.269 1055.46 295.269 1050.65C295.269 1045.78 296.266 1041.61 298.261 1038.15C300.256 1034.69 303.072 1032.02 306.709 1030.14C310.346 1028.27 314.658 1027.33 319.645 1027.33C324.573 1027.33 328.856 1028.27 332.493 1030.14C336.13 1032.02 338.946 1034.72 340.941 1038.24C342.936 1041.7 343.933 1045.84 343.933 1050.65C343.933 1055.4 342.936 1059.54 340.941 1063.06C338.946 1066.58 336.13 1069.27 332.493 1071.15C328.856 1073.03 324.573 1073.97 319.645 1073.97ZM319.645 1062.35C322.226 1062.35 324.28 1061.44 325.805 1059.62C327.33 1057.75 328.093 1054.75 328.093 1050.65C328.093 1046.54 327.33 1043.58 325.805 1041.76C324.28 1039.88 322.226 1038.94 319.645 1038.94C317.005 1038.94 314.922 1039.88 313.397 1041.76C311.872 1043.58 311.109 1046.54 311.109 1050.65C311.109 1054.75 311.872 1057.75 313.397 1059.62C314.922 1061.44 317.005 1062.35 319.645 1062.35ZM377.923 1073V1010.96H408.371C415.528 1010.96 420.926 1012.72 424.563 1016.24C428.2 1019.7 430.019 1024.42 430.019 1030.41C430.019 1036.33 428.2 1041.06 424.563 1044.58C420.926 1048.1 415.528 1049.86 408.371 1049.86H394.203V1073H377.923ZM394.203 1037.36H406.259C409.016 1037.36 411.07 1036.77 412.419 1035.6C413.768 1034.37 414.443 1032.64 414.443 1030.41C414.443 1028.18 413.768 1026.45 412.419 1025.22C411.07 1023.98 409.016 1023.37 406.259 1023.37H394.203V1037.36ZM458.377 1073.97C450.281 1073.97 443.974 1071.89 439.457 1067.72C434.998 1063.55 432.769 1057.83 432.769 1050.56C432.769 1046.04 433.708 1042.02 435.585 1038.5C437.462 1034.98 440.102 1032.26 443.505 1030.32C446.908 1028.33 450.897 1027.33 455.473 1027.33C459.99 1027.33 463.745 1028.33 466.737 1030.32C469.788 1032.26 472.076 1034.95 473.601 1038.42C475.126 1041.82 475.889 1045.78 475.889 1050.3V1053.64H445.881V1046.25H464.361L462.865 1047.48C462.865 1044.14 462.22 1041.67 460.929 1040.09C459.697 1038.45 457.937 1037.62 455.649 1037.62C453.009 1037.62 450.985 1038.62 449.577 1040.62C448.228 1042.55 447.553 1045.49 447.553 1049.42V1051C447.553 1054.93 448.521 1057.81 450.457 1059.62C452.393 1061.44 455.18 1062.35 458.817 1062.35C461.164 1062.35 463.364 1062.09 465.417 1061.56C467.529 1061.03 469.524 1060.18 471.401 1059.01L475.449 1069.22C473.22 1070.74 470.638 1071.91 467.705 1072.74C464.772 1073.56 461.662 1073.97 458.377 1073.97ZM483.348 1073V1040.44C483.348 1038.45 483.289 1036.42 483.172 1034.37C483.054 1032.31 482.878 1030.29 482.644 1028.3H497.78L498.66 1036.04H497.692C498.982 1033.34 500.889 1031.23 503.412 1029.7C505.934 1028.12 508.897 1027.33 512.3 1027.33C515.585 1027.33 518.372 1028.12 520.66 1029.7C523.006 1031.23 524.708 1033.66 525.764 1037.01H524.268C525.734 1033.96 527.846 1031.58 530.604 1029.88C533.42 1028.18 536.558 1027.33 540.02 1027.33C545.124 1027.33 548.937 1028.88 551.46 1031.99C553.982 1035.04 555.244 1039.82 555.244 1046.34V1073H539.492V1046.86C539.492 1044.11 539.081 1042.17 538.26 1041.06C537.438 1039.88 536.118 1039.3 534.3 1039.3C532.012 1039.3 530.222 1040.12 528.932 1041.76C527.7 1043.4 527.084 1045.66 527.084 1048.54V1073H511.42V1046.86C511.42 1044.11 510.98 1042.17 510.1 1041.06C509.278 1039.88 507.988 1039.3 506.228 1039.3C503.94 1039.3 502.15 1040.12 500.86 1041.76C499.628 1043.4 499.012 1045.66 499.012 1048.54V1073H483.348ZM593.949 1073.97C590.546 1073.97 587.437 1073.15 584.621 1071.5C581.863 1069.86 580.045 1067.69 579.165 1064.99H580.133V1073H564.645V1008.23H580.309V1035.86H579.253C580.25 1033.28 582.098 1031.23 584.797 1029.7C587.554 1028.12 590.605 1027.33 593.949 1027.33C597.821 1027.33 601.223 1028.27 604.157 1030.14C607.149 1032.02 609.466 1034.72 611.109 1038.24C612.81 1041.76 613.661 1045.93 613.661 1050.74C613.661 1055.61 612.81 1059.77 611.109 1063.23C609.466 1066.69 607.149 1069.36 604.157 1071.24C601.223 1073.06 597.821 1073.97 593.949 1073.97ZM589.021 1062.35C591.602 1062.35 593.714 1061.44 595.357 1059.62C597.058 1057.81 597.909 1054.84 597.909 1050.74C597.909 1046.63 597.058 1043.64 595.357 1041.76C593.714 1039.88 591.602 1038.94 589.021 1038.94C586.381 1038.94 584.239 1039.88 582.597 1041.76C580.954 1043.58 580.133 1046.54 580.133 1050.65C580.133 1054.75 580.954 1057.75 582.597 1059.62C584.239 1061.44 586.381 1062.35 589.021 1062.35ZM644.862 1073.97C636.766 1073.97 630.459 1071.89 625.942 1067.72C621.483 1063.55 619.254 1057.83 619.254 1050.56C619.254 1046.04 620.192 1042.02 622.07 1038.5C623.947 1034.98 626.587 1032.26 629.99 1030.32C633.392 1028.33 637.382 1027.33 641.958 1027.33C646.475 1027.33 650.23 1028.33 653.222 1030.32C656.272 1032.26 658.56 1034.95 660.086 1038.42C661.611 1041.82 662.374 1045.78 662.374 1050.3V1053.64H632.366V1046.25H650.846L649.35 1047.48C649.35 1044.14 648.704 1041.67 647.414 1040.09C646.182 1038.45 644.422 1037.62 642.134 1037.62C639.494 1037.62 637.47 1038.62 636.062 1040.62C634.712 1042.55 634.038 1045.49 634.038 1049.42V1051C634.038 1054.93 635.006 1057.81 636.942 1059.62C638.878 1061.44 641.664 1062.35 645.302 1062.35C647.648 1062.35 649.848 1062.09 651.902 1061.56C654.014 1061.03 656.008 1060.18 657.886 1059.01L661.934 1069.22C659.704 1070.74 657.123 1071.91 654.19 1072.74C651.256 1073.56 648.147 1073.97 644.862 1073.97ZM669.832 1073V1008.23H685.496V1073H669.832ZM712.784 1073.97C708.912 1073.97 705.509 1073.06 702.576 1071.24C699.642 1069.36 697.325 1066.66 695.624 1063.14C693.981 1059.62 693.16 1055.46 693.16 1050.65C693.16 1045.78 693.981 1041.61 695.624 1038.15C697.325 1034.63 699.642 1031.96 702.576 1030.14C705.509 1028.27 708.912 1027.33 712.784 1027.33C716.245 1027.33 719.354 1028.15 722.112 1029.79C724.928 1031.43 726.776 1033.58 727.656 1036.22H726.776L727.744 1028.3H742.792C742.616 1030.29 742.44 1032.31 742.264 1034.37C742.146 1036.42 742.088 1038.45 742.088 1040.44V1073H726.6L726.424 1065.43H727.48C726.6 1068.01 724.752 1070.1 721.936 1071.68C719.178 1073.21 716.128 1073.97 712.784 1073.97ZM717.8 1062.35C720.44 1062.35 722.581 1061.44 724.224 1059.62C725.866 1057.75 726.688 1054.75 726.688 1050.65C726.688 1046.54 725.866 1043.58 724.224 1041.76C722.581 1039.88 720.44 1038.94 717.8 1038.94C715.16 1038.94 713.018 1039.88 711.376 1041.76C709.733 1043.58 708.912 1046.54 708.912 1050.65C708.912 1054.75 709.704 1057.75 711.288 1059.62C712.93 1061.44 715.101 1062.35 717.8 1062.35ZM749.001 1092.8C747.593 1092.8 746.185 1092.71 744.777 1092.54C743.369 1092.36 742.019 1092.01 740.729 1091.48V1079.42C741.609 1079.72 742.459 1079.92 743.281 1080.04C744.043 1080.16 744.865 1080.22 745.745 1080.22C747.446 1080.22 748.854 1079.72 749.969 1078.72C751.142 1077.78 751.729 1076.05 751.729 1073.53V1028.3H767.393V1074.06C767.393 1080.22 765.926 1084.88 762.993 1088.05C760.118 1091.22 755.454 1092.8 749.001 1092.8ZM751.289 1021.96V1007.88H767.745V1021.96H751.289ZM794.768 1073.97C790.896 1073.97 787.493 1073.06 784.56 1071.24C781.627 1069.36 779.309 1066.66 777.608 1063.14C775.965 1059.62 775.144 1055.46 775.144 1050.65C775.144 1045.78 775.965 1041.61 777.608 1038.15C779.309 1034.63 781.627 1031.96 784.56 1030.14C787.493 1028.27 790.896 1027.33 794.768 1027.33C798.229 1027.33 801.339 1028.15 804.096 1029.79C806.912 1031.43 808.76 1033.58 809.64 1036.22H808.76L809.728 1028.3H824.776C824.6 1030.29 824.424 1032.31 824.248 1034.37C824.131 1036.42 824.072 1038.45 824.072 1040.44V1073H808.584L808.408 1065.43H809.464C808.584 1068.01 806.736 1070.1 803.92 1071.68C801.163 1073.21 798.112 1073.97 794.768 1073.97ZM799.784 1062.35C802.424 1062.35 804.565 1061.44 806.208 1059.62C807.851 1057.75 808.672 1054.75 808.672 1050.65C808.672 1046.54 807.851 1043.58 806.208 1041.76C804.565 1039.88 802.424 1038.94 799.784 1038.94C797.144 1038.94 795.003 1039.88 793.36 1041.76C791.717 1043.58 790.896 1046.54 790.896 1050.65C790.896 1054.75 791.688 1057.75 793.272 1059.62C794.915 1061.44 797.085 1062.35 799.784 1062.35ZM833.801 1073V1040.53C833.801 1038.47 833.742 1036.42 833.625 1034.37C833.508 1032.31 833.332 1030.29 833.097 1028.3H848.233L849.905 1042.02H847.529C848.116 1038.68 849.054 1035.92 850.345 1033.75C851.636 1031.58 853.249 1029.97 855.185 1028.91C857.121 1027.86 859.409 1027.33 862.049 1027.33C863.281 1027.33 864.19 1027.39 864.777 1027.5C865.422 1027.56 866.097 1027.74 866.801 1028.03V1041.76C865.334 1041.11 864.161 1040.7 863.281 1040.53C862.401 1040.35 861.257 1040.26 859.849 1040.26C857.444 1040.26 855.478 1040.7 853.953 1041.58C852.428 1042.41 851.313 1043.7 850.609 1045.46C849.964 1047.22 849.641 1049.47 849.641 1052.23V1073H833.801ZM888.698 1073.97C884.826 1073.97 881.423 1073.06 878.49 1071.24C875.556 1069.36 873.239 1066.66 871.538 1063.14C869.895 1059.62 869.074 1055.46 869.074 1050.65C869.074 1045.78 869.895 1041.61 871.538 1038.15C873.239 1034.63 875.556 1031.96 878.49 1030.14C881.423 1028.27 884.826 1027.33 888.698 1027.33C892.159 1027.33 895.268 1028.15 898.026 1029.79C900.842 1031.43 902.69 1033.58 903.57 1036.22H902.69L903.658 1028.3H918.706C918.53 1030.29 918.354 1032.31 918.178 1034.37C918.06 1036.42 918.002 1038.45 918.002 1040.44V1073H902.514L902.338 1065.43H903.394C902.514 1068.01 900.666 1070.1 897.85 1071.68C895.092 1073.21 892.042 1073.97 888.698 1073.97ZM893.714 1062.35C896.354 1062.35 898.495 1061.44 900.138 1059.62C901.78 1057.75 902.602 1054.75 902.602 1050.65C902.602 1046.54 901.78 1043.58 900.138 1041.76C898.495 1039.88 896.354 1038.94 893.714 1038.94C891.074 1038.94 888.932 1039.88 887.29 1041.76C885.647 1043.58 884.826 1046.54 884.826 1050.65C884.826 1054.75 885.618 1057.75 887.202 1059.62C888.844 1061.44 891.015 1062.35 893.714 1062.35ZM927.731 1073V1040.44C927.731 1038.45 927.672 1036.42 927.555 1034.37C927.437 1032.31 927.261 1030.29 927.027 1028.3H942.163L943.043 1036.04H942.075C943.541 1033.22 945.624 1031.08 948.323 1029.62C951.021 1028.09 954.072 1027.33 957.475 1027.33C962.696 1027.33 966.597 1028.88 969.179 1031.99C971.819 1035.04 973.139 1039.82 973.139 1046.34V1073H957.475V1047.04C957.475 1044.17 956.976 1042.17 955.979 1041.06C954.981 1039.88 953.544 1039.3 951.667 1039.3C949.203 1039.3 947.208 1040.12 945.683 1041.76C944.157 1043.34 943.395 1045.46 943.395 1048.1V1073H927.731Z" fill="white"/>
<path d="M1107.72 290.473L755.45 98.8697C752.053 97.0245 748.25 96.0394 744.377 96.0012C740.505 95.9629 736.681 96.8727 733.243 98.6504L376.749 283.257C372.946 285.225 369.751 288.184 367.506 291.817C365.261 295.45 364.049 299.621 364.001 303.884C363.954 308.147 365.071 312.341 367.234 316.018C369.397 319.695 372.525 322.716 376.282 324.758L457.773 369.096L456.175 511.41C456.017 522.96 460.163 534.153 467.813 542.83C506.018 586.094 591.885 658.871 738.038 660.314C786.493 661.191 834.689 652.929 880.079 635.966L878.997 732.252C878.927 738.488 881.349 744.494 885.73 748.947C890.111 753.4 896.093 755.937 902.359 755.999C908.624 756.061 914.661 753.643 919.142 749.277C923.622 744.911 926.178 738.955 926.248 732.719L927.585 613.713C958.592 596.318 986.684 574.211 1010.84 548.191C1018.68 539.666 1023.08 528.558 1023.18 517.007L1024.78 374.694L1107.25 331.974C1111.05 330.007 1114.25 327.048 1116.49 323.415C1118.74 319.781 1119.95 315.61 1120 311.347C1120.05 307.085 1118.93 302.89 1116.77 299.214C1114.6 295.537 1111.48 292.516 1107.72 290.473ZM738.566 613.287C610.782 612.026 536.322 549.15 503.425 511.876L504.743 394.634L728.55 516.362C731.947 518.207 735.75 519.192 739.623 519.231C743.495 519.269 747.319 518.359 750.757 516.581L882.185 448.537L880.655 584.737C843.25 601.651 796.212 613.856 738.566 613.287ZM975.934 516.423C961.597 531.924 945.594 545.813 928.213 557.84L929.718 423.903L977.25 399.298L975.934 516.423ZM918.433 376.789L917.787 376.401L753.396 286.976C747.91 284.116 741.512 283.518 735.581 285.309C729.65 287.1 724.66 291.137 721.686 296.551C718.713 301.965 717.993 308.322 719.683 314.252C721.374 320.183 725.338 325.212 730.722 328.257L867.93 402.922L740.186 469.063L437.823 304.613L743.814 146.168L1046.18 310.619L918.433 376.789Z" fill="white" fill-opacity="0.2"/>
</svg>
