<svg width="1449" height="251" viewBox="0 0 1449 251" fill="none" xmlns="http://www.w3.org/2000/svg">
<path d="M0.367958 192V8.69999H86.948C108.095 8.69999 124.388 13.7267 135.828 23.78C147.441 33.8333 153.248 47.7867 153.248 65.64C153.248 77.6 150.648 87.8267 145.448 96.32C140.248 104.64 132.708 111.14 122.828 115.82C112.948 120.327 101.161 122.58 87.468 122.58L89.808 116.08H102.808C110.435 116.08 117.195 118.16 123.088 122.32C128.981 126.48 133.835 132.287 137.648 139.74L165.468 192H112.948L83.048 133.5C81.1413 129.687 78.2813 127.087 74.468 125.7C70.828 124.313 66.668 123.62 61.988 123.62H48.468V192H0.367958ZM48.468 89.56H78.628C87.988 89.56 95.0946 87.74 99.948 84.1C104.801 80.2867 107.228 74.6533 107.228 67.2C107.228 59.92 104.801 54.46 99.948 50.82C95.0946 47.18 87.988 45.36 78.628 45.36H48.468V89.56ZM221.34 194.86C204.526 194.86 192.046 190.267 183.9 181.08C175.926 171.72 171.94 157.593 171.94 138.7V59.92H218.22V138.96C218.22 145.893 219.606 151.093 222.38 154.56C225.326 157.853 229.746 159.5 235.64 159.5C242.226 159.5 247.6 157.16 251.76 152.48C256.093 147.627 258.26 141.3 258.26 133.5V59.92H304.54V192H259.56V168.34H263.46C259.3 176.833 253.666 183.42 246.56 188.1C239.453 192.607 231.046 194.86 221.34 194.86ZM375.042 194.86C363.602 194.86 353.549 192.173 344.882 186.8C336.216 181.253 329.369 173.28 324.342 162.88C319.489 152.48 317.062 140.173 317.062 125.96C317.062 111.573 319.489 99.2667 324.342 89.04C329.369 78.64 336.216 70.7533 344.882 65.38C353.549 59.8333 363.602 57.06 375.042 57.06C385.269 57.06 394.456 59.4867 402.602 64.34C410.922 69.1933 416.382 75.52 418.982 83.32H416.382L419.242 59.92H463.702C463.182 65.8133 462.662 71.7933 462.142 77.86C461.796 83.9267 461.622 89.9067 461.622 95.8V192H415.862L415.342 169.64H418.462C415.862 177.267 410.402 183.42 402.082 188.1C393.936 192.607 384.922 194.86 375.042 194.86ZM389.862 160.54C397.662 160.54 403.989 157.853 408.842 152.48C413.696 146.933 416.122 138.093 416.122 125.96C416.122 113.827 413.696 105.073 408.842 99.7C403.989 94.1533 397.662 91.38 389.862 91.38C382.062 91.38 375.736 94.1533 370.882 99.7C366.029 105.073 363.602 113.827 363.602 125.96C363.602 138.093 365.942 146.933 370.622 152.48C375.476 157.853 381.889 160.54 389.862 160.54ZM479.966 192V95.8C479.966 89.9067 479.793 83.9267 479.446 77.86C479.1 71.7933 478.58 65.8133 477.886 59.92H522.606L525.206 82.8H522.346C526.68 74.48 532.833 68.1533 540.806 63.82C548.78 59.3133 557.793 57.06 567.846 57.06C583.273 57.06 594.8 61.6533 602.426 70.84C610.226 79.8533 614.126 93.98 614.126 113.22V192H567.846V115.3C567.846 106.807 566.373 100.913 563.426 97.62C560.48 94.1533 556.233 92.42 550.686 92.42C543.406 92.42 537.513 94.8467 533.006 99.7C528.5 104.38 526.246 110.62 526.246 118.42V192H479.966ZM696.299 250.24C683.125 250.24 671.512 249.027 661.459 246.6C651.579 244.347 642.652 240.793 634.679 235.94L642.739 203.18C647.419 205.953 652.532 208.293 658.079 210.2C663.625 212.107 669.345 213.493 675.239 214.36C681.305 215.4 687.025 215.92 692.399 215.92C703.492 215.92 711.725 213.32 717.099 208.12C722.472 203.093 725.159 195.9 725.159 186.54V163.4H727.759C724.985 171.027 719.525 177.18 711.379 181.86C703.232 186.367 694.219 188.62 684.339 188.62C672.552 188.62 662.239 186.02 653.399 180.82C644.732 175.447 637.885 167.82 632.859 157.94C628.005 148.06 625.579 136.36 625.579 122.84C625.579 109.32 628.005 97.62 632.859 87.74C637.885 77.86 644.732 70.32 653.399 65.12C662.239 59.7467 672.552 57.06 684.339 57.06C694.565 57.06 703.579 59.3133 711.379 63.82C719.179 68.3267 724.465 74.3067 727.239 81.76L725.159 81.24L728.019 59.92H772.479C771.785 65.8133 771.265 71.7933 770.919 77.86C770.572 83.9267 770.399 89.9067 770.399 95.8V181.34C770.399 203.527 764.072 220.513 751.419 232.3C738.765 244.26 720.392 250.24 696.299 250.24ZM698.639 154.3C706.612 154.3 712.939 151.613 717.619 146.24C722.299 140.867 724.639 133.067 724.639 122.84C724.639 112.44 722.299 104.64 717.619 99.44C712.939 94.0667 706.612 91.38 698.639 91.38C690.492 91.38 684.079 94.0667 679.399 99.44C674.719 104.64 672.379 112.44 672.379 122.84C672.379 133.067 674.719 140.867 679.399 146.24C684.079 151.613 690.492 154.3 698.639 154.3ZM786.143 100.22C786.143 81.1533 789.869 64.6 797.323 50.56C804.776 36.3467 815.436 25.34 829.303 17.54C843.169 9.74 859.549 5.83999 878.443 5.83999C897.509 5.83999 913.976 9.74 927.843 17.54C941.709 25.34 952.369 36.3467 959.823 50.56C967.449 64.6 971.263 81.1533 971.263 100.22C971.263 119.113 967.449 135.667 959.823 149.88C952.369 164.093 941.709 175.187 927.843 183.16C913.976 190.96 897.509 194.86 878.443 194.86C859.549 194.86 843.169 190.96 829.303 183.16C815.609 175.187 804.949 164.093 797.323 149.88C789.869 135.667 786.143 119.113 786.143 100.22ZM836.323 100.22C836.323 117.38 839.789 130.813 846.723 140.52C853.656 150.053 864.229 154.82 878.443 154.82C892.656 154.82 903.316 150.053 910.423 140.52C917.529 130.813 921.083 117.38 921.083 100.22C921.083 83.06 917.529 69.7133 910.423 60.18C903.316 50.6467 892.656 45.88 878.443 45.88C864.229 45.88 853.656 50.6467 846.723 60.18C839.789 69.54 836.323 82.8867 836.323 100.22ZM1073.63 194.86C1063.57 194.86 1054.39 192.433 1046.07 187.58C1037.92 182.727 1032.55 176.313 1029.95 168.34H1032.81V192H987.048V0.639984H1033.33V82.28H1030.21C1033.15 74.6533 1038.61 68.5867 1046.59 64.08C1054.73 59.4 1063.75 57.06 1073.63 57.06C1085.07 57.06 1095.12 59.8333 1103.79 65.38C1112.63 70.9267 1119.47 78.9 1124.33 89.3C1129.35 99.7 1131.87 112.007 1131.87 126.22C1131.87 140.607 1129.35 152.913 1124.33 163.14C1119.47 173.367 1112.63 181.253 1103.79 186.8C1095.12 192.173 1085.07 194.86 1073.63 194.86ZM1059.07 160.54C1066.69 160.54 1072.93 157.853 1077.79 152.48C1082.81 147.107 1085.33 138.353 1085.33 126.22C1085.33 114.087 1082.81 105.247 1077.79 99.7C1072.93 94.1533 1066.69 91.38 1059.07 91.38C1051.27 91.38 1044.94 94.1533 1040.09 99.7C1035.23 105.073 1032.81 113.827 1032.81 125.96C1032.81 138.093 1035.23 146.933 1040.09 152.48C1044.94 157.853 1051.27 160.54 1059.07 160.54ZM1195.97 194.86C1184.53 194.86 1174.48 192.173 1165.81 186.8C1157.15 181.253 1150.3 173.28 1145.27 162.88C1140.42 152.48 1137.99 140.173 1137.99 125.96C1137.99 111.573 1140.42 99.2667 1145.27 89.04C1150.3 78.64 1157.15 70.7533 1165.81 65.38C1174.48 59.8333 1184.53 57.06 1195.97 57.06C1206.2 57.06 1215.39 59.4867 1223.53 64.34C1231.85 69.1933 1237.31 75.52 1239.91 83.32H1237.31L1240.17 59.92H1284.63C1284.11 65.8133 1283.59 71.7933 1283.07 77.86C1282.73 83.9267 1282.55 89.9067 1282.55 95.8V192H1236.79L1236.27 169.64H1239.39C1236.79 177.267 1231.33 183.42 1223.01 188.1C1214.87 192.607 1205.85 194.86 1195.97 194.86ZM1210.79 160.54C1218.59 160.54 1224.92 157.853 1229.77 152.48C1234.63 146.933 1237.05 138.093 1237.05 125.96C1237.05 113.827 1234.63 105.073 1229.77 99.7C1224.92 94.1533 1218.59 91.38 1210.79 91.38C1202.99 91.38 1196.67 94.1533 1191.81 99.7C1186.96 105.073 1184.53 113.827 1184.53 125.96C1184.53 138.093 1186.87 146.933 1191.55 152.48C1196.41 157.853 1202.82 160.54 1210.79 160.54ZM1368.5 194.86C1349.78 194.86 1335.65 190.44 1326.12 181.6C1316.76 172.587 1312.08 158.98 1312.08 140.78V93.98H1287.38V59.92H1312.08V28.72L1358.36 17.8V59.92H1390.6V93.98H1358.36V138.96C1358.36 146.587 1360.09 151.7 1363.56 154.3C1367.02 156.727 1371.18 157.94 1376.04 157.94C1378.98 157.94 1381.5 157.767 1383.58 157.42C1385.83 156.9 1388.17 156.207 1390.6 155.34V190.96C1386.78 192.52 1382.97 193.56 1379.16 194.08C1375.52 194.6 1371.96 194.86 1368.5 194.86ZM1400.87 192V144.68H1448.97V192H1400.87Z" fill="white"/>
</svg>
